<svg version="1.1" id="Layer_1" xmlns="http://www.w3.org/2000/svg" xmlns:xlink="http://www.w3.org/1999/xlink" x="0px" y="0px" viewBox="0 0 1666 800" style="enable-background:new 0 0 1666 800;" xml:space="preserve">
<style type="text/css">
	.st0{fill:none;stroke:#FB0D99;stroke-width:3.0658;stroke-miterlimit:10;}
	.st1{fill:#FB0D99;}
	.st2{fill:#FFFFFF;}
	.st3{fill:#8D4FD6;}
	.st4{fill:#F43173;}
	.st5{fill:#467AFE;}
	.st6{fill:#E9741C;}
	.st7{fill:#BE32BB;}
	.st8{fill:url(#SVGID_1_);}
	.st9{opacity:0.5;fill:#FFFFFF;}
	.st10{opacity:0.03;}
	.st11{fill:url(#SVGID_00000071517605520065016610000018206947266957257635_);}
	.st12{fill:url(#SVGID_00000163766250876309647600000011950523823204457628_);}
	.st13{fill:url(#SVGID_00000156589825042856877560000013157114937579740068_);}
	.st14{fill:url(#SVGID_00000154394909680626464300000011241014194899348365_);}
	.st15{fill:url(#SVGID_00000175290239941393598190000004651339936834052742_);}
	.st16{fill:url(#SVGID_00000047746358186854327430000010651838915763740561_);}
	.st17{fill:url(#SVGID_00000158713541580437547070000015172328354593686928_);}
	.st18{fill:url(#SVGID_00000077317023492165156640000017718222231147207081_);}
	.st19{fill:url(#SVGID_00000178902156883285093920000011876998220125621908_);}
	.st20{fill:url(#SVGID_00000089534011525429900690000007868875763900170143_);}
	.st21{fill:url(#SVGID_00000124845918747185310120000011684873468435012994_);}
	.st22{fill:url(#SVGID_00000079480774966870551060000000238524704324964794_);}
</style>
<path class="st0" d="M1311.08,249.86c0,0,12.26,47.12,0,72.61c-12.26,25.49,21.46,51.95,38.32,52.52"></path>
<g>
	<path d="M718.69,166.21H697.9v15.71h18.48v7.16H697.9v16.4h20.79v7.16h-29.57v-53.59h29.57V166.21z"></path>
	<path d="M769.19,208.71l12.86,13.63h-11.17l-9.39-10.16c-2.39,0.69-4.93,1-7.62,1c-15.09,0-27.34-11.32-27.34-27.41
		c0-16.02,12.24-27.34,27.34-27.34c15.25,0,27.34,11.32,27.34,27.34C781.2,195.85,776.51,204.01,769.19,208.71z M753.87,205.55
		c10.63,0,18.33-7.7,18.33-19.79c0-12.09-7.7-19.64-18.33-19.64c-10.63,0-18.33,7.55-18.33,19.64
		C735.54,197.85,743.24,205.55,753.87,205.55z"></path>
	<path d="M789.97,159.12h8.78v34.11c0,8.32,4.7,12.24,12.09,12.24c7.47,0,12.17-3.93,12.17-12.24v-34.11h8.78v33.96
		c0,13.63-9.86,20.1-21.02,20.1c-11.24,0-20.79-6.47-20.79-20.1V159.12z"></path>
	<path d="M875.43,201.7h-22.41l-3.85,10.93h-9.16l19.17-53.59h10.16l19.17,53.59h-9.24L875.43,201.7z M864.27,169.67l-8.78,24.87
		h17.48L864.27,169.67z"></path>
	<path d="M894.06,159.12h37.35v7.16h-14.25v46.35h-8.78v-46.35h-14.32V159.12z"></path>
	<path d="M940.25,159.12h8.78v53.52h-8.78V159.12z"></path>
	<path d="M984.98,213.18c-15.09,0-27.34-11.32-27.34-27.41c0-16.02,12.24-27.34,27.34-27.34c15.25,0,27.34,11.32,27.34,27.34
		C1012.32,201.86,1000.23,213.18,984.98,213.18z M984.98,205.55c10.63,0,18.33-7.7,18.33-19.79c0-12.09-7.7-19.64-18.33-19.64
		c-10.63,0-18.33,7.55-18.33,19.64C966.66,197.85,974.36,205.55,984.98,205.55z"></path>
	<path d="M1064.9,159.04v53.59h-8.78l-26.41-39.96v39.96h-8.78v-53.59h8.78l26.41,39.89v-39.89H1064.9z"></path>
	<path d="M1094.08,213.18c-10.7,0-18.94-5.85-18.94-15.32h9.4c0.38,4.39,3.46,7.93,9.55,7.93c6.16,0,9.63-3.31,9.63-7.85
		c0-12.94-28.41-4.54-28.41-24.26c0-9.39,7.47-15.25,18.4-15.25c10.24,0,17.48,5.39,18.25,14.55h-9.7
		c-0.31-3.62-3.46-6.93-9.01-7.08c-5.08-0.15-9.01,2.31-9.01,7.47c0,12.09,28.34,4.54,28.34,24.1
		C1112.56,205.48,1106.01,213.18,1094.08,213.18z"></path>
</g>
<g>
	<path class="st1" d="M1347.66,251.4h-161.33c-2.86,0-5.18-2.32-5.18-5.18v-54.02c0-2.86,2.32-5.18,5.18-5.18h161.33
		c2.86,0,5.18,2.32,5.18,5.18v54.02C1352.84,249.08,1350.52,251.4,1347.66,251.4z"></path>
</g>
<g>
	<path class="st2" d="M1216.27,204.63h4.17v27.04h-4.17V204.63z"></path>
	<path class="st2" d="M1225.36,206.2c0-1.5,1.17-2.67,2.67-2.67c1.46,0,2.63,1.17,2.63,2.67c0,1.5-1.17,2.67-2.63,2.67
		C1226.53,208.86,1225.36,207.7,1225.36,206.2z M1225.91,211.53h4.16v20.13h-4.16V211.53z"></path>
	<path class="st2" d="M1249.84,220.41c0-3.69-2.01-5.59-5.04-5.59c-3.07,0-5.08,1.9-5.08,5.59v11.25h-4.17v-20.13h4.17v2.3
		c1.35-1.64,3.58-2.63,5.99-2.63c4.71,0,8.26,2.96,8.26,8.59v11.87h-4.13V220.41z"></path>
	<path class="st2" d="M1267.92,231.99c-5.77,0-10.05-4.09-10.05-10.41c0-6.32,4.09-10.38,10.05-10.38c5.73,0,9.79,3.98,9.79,9.9
		c0,0.69-0.04,1.35-0.15,2.05h-15.38c0.29,3.32,2.67,5.33,5.74,5.33c2.56,0,3.98-1.24,4.75-2.81h4.49
		C1276.04,229.18,1272.86,231.99,1267.92,231.99z M1262.22,219.79h11.14c-0.07-3.11-2.52-5.08-5.63-5.08
		C1264.93,214.71,1262.66,216.61,1262.22,219.79z"></path>
	<path class="st2" d="M1289.92,211.2c3.4,0,5.74,1.61,6.98,3.25v-2.92h4.2v20.13h-4.2v-3c-1.28,1.72-3.69,3.32-7.05,3.32
		c-5.22,0-9.43-4.27-9.43-10.49C1280.42,215.3,1284.62,211.2,1289.92,211.2z M1290.79,214.82c-3.11,0-6.1,2.34-6.1,6.69
		c0,4.35,3,6.87,6.1,6.87c3.14,0,6.1-2.45,6.1-6.8C1296.89,217.27,1293.94,214.82,1290.79,214.82z"></path>
	<path class="st2" d="M1310.74,231.66h-4.16v-20.13h4.16v2.92c1.17-2.01,3.18-3.25,6.03-3.25v4.31h-1.06
		c-3.07,0-4.97,1.28-4.97,5.55V231.66z"></path>
</g>
<g>
	<path class="st3" d="M632.64,131.83H290.67c-2.86,0-5.18-2.32-5.18-5.18V72.63c0-2.86,2.32-5.18,5.18-5.18h341.97
		c2.86,0,5.18,2.32,5.18,5.18v54.02C637.82,129.51,635.5,131.83,632.64,131.83z"></path>
</g>
<g>
	<path class="st2" d="M320.66,91.64c5.3,0,9.46,4.09,9.46,10.3c0,6.21-4.17,10.49-9.46,10.49c-3.32,0-5.7-1.68-7.01-3.25v12.5h-4.17
		v-29.7h4.17v2.96C314.92,93.24,317.37,91.64,320.66,91.64z M319.74,95.25c-3.11,0-6.1,2.45-6.1,6.76c0,4.35,3,6.8,6.1,6.8
		c3.14,0,6.14-2.52,6.14-6.87C325.88,97.59,322.89,95.25,319.74,95.25z"></path>
	<path class="st2" d="M342.98,112.43c-5.74,0-10.08-4.09-10.08-10.41c0-6.32,4.53-10.38,10.27-10.38c5.74,0,10.27,4.06,10.27,10.38
		C353.43,108.33,348.75,112.43,342.98,112.43z M342.98,108.81c3.11,0,6.17-2.23,6.17-6.8c0-4.57-2.96-6.76-6.06-6.76
		c-3.14,0-5.96,2.19-5.96,6.76C337.13,106.58,339.84,108.81,342.98,108.81z"></path>
	<path class="st2" d="M355.18,91.97h4.24l4.2,16.19l4.27-16.19h4.35l4.09,16.11l4.16-16.11h4.09l-6.25,20.13h-4.38l-4.06-14.87
		l-4.06,14.87h-4.38L355.18,91.97z"></path>
	<path class="st2" d="M396.35,112.43c-5.77,0-10.05-4.09-10.05-10.41c0-6.32,4.09-10.38,10.05-10.38c5.74,0,9.79,3.98,9.79,9.9
		c0,0.69-0.04,1.35-0.15,2.05h-15.38c0.29,3.32,2.67,5.33,5.74,5.33c2.56,0,3.98-1.24,4.75-2.81h4.49
		C404.47,109.61,401.29,112.43,396.35,112.43z M390.66,100.22h11.14c-0.07-3.11-2.52-5.08-5.63-5.08
		C393.36,95.14,391.09,97.04,390.66,100.22z"></path>
	<path class="st2" d="M414.4,112.1h-4.17V91.97h4.17v2.92c1.17-2.01,3.18-3.25,6.03-3.25v4.31h-1.06c-3.07,0-4.97,1.28-4.97,5.55
		V112.1z"></path>
	<path class="st2" d="M442.42,112.43c-5.77,0-10.05-4.09-10.05-10.41c0-6.32,4.09-10.38,10.05-10.38c5.74,0,9.79,3.98,9.79,9.9
		c0,0.69-0.04,1.35-0.15,2.05h-15.38c0.29,3.32,2.67,5.33,5.74,5.33c2.56,0,3.98-1.24,4.75-2.81h4.49
		C450.53,109.61,447.36,112.43,442.42,112.43z M436.72,100.22h11.14c-0.07-3.11-2.52-5.08-5.63-5.08
		C439.43,95.14,437.16,97.04,436.72,100.22z"></path>
	<path class="st2" d="M464.45,91.64c3.32,0,5.77,1.61,6.94,3.25v-2.92h4.2v29.7h-4.2v-12.5c-1.17,1.57-3.69,3.25-7.09,3.25
		c-5.19,0-9.39-4.27-9.39-10.49C454.92,95.73,459.12,91.64,464.45,91.64z M465.29,95.25c-3.11,0-6.1,2.34-6.1,6.69
		c0,4.35,3,6.87,6.1,6.87c3.14,0,6.1-2.45,6.1-6.8C471.39,97.7,468.43,95.25,465.29,95.25z"></path>
	<path class="st2" d="M499.31,112.1h-4.16v-2.41c-1.32,1.72-3.58,2.7-5.96,2.7c-4.71,0-8.29-2.96-8.29-8.59V91.97h4.13v11.22
		c0,3.69,2.01,5.59,5.04,5.59c3.07,0,5.08-1.9,5.08-5.59V91.97h4.16V112.1z"></path>
	<path class="st2" d="M512.9,91.64c3.4,0,5.74,1.61,6.98,3.25v-2.92h4.2v20.13h-4.2v-3c-1.28,1.72-3.69,3.32-7.05,3.32
		c-5.23,0-9.43-4.27-9.43-10.49C503.4,95.73,507.6,91.64,512.9,91.64z M513.77,95.25c-3.11,0-6.1,2.34-6.1,6.69
		c0,4.35,3,6.87,6.1,6.87c3.14,0,6.1-2.45,6.1-6.8C519.87,97.7,516.92,95.25,513.77,95.25z"></path>
	<path class="st2" d="M530.21,95.36h-2.37v-3.4h2.37v-5.01h4.2v5.01h4.9v3.4h-4.9v11.14c0,1.5,0.58,2.12,2.34,2.12h2.56v3.47h-3.29
		c-3.58,0-5.81-1.5-5.81-5.59V95.36z"></path>
	<path class="st2" d="M542.6,86.63c0-1.5,1.17-2.67,2.67-2.67c1.46,0,2.63,1.17,2.63,2.67c0,1.5-1.17,2.67-2.63,2.67
		C543.77,89.3,542.6,88.13,542.6,86.63z M543.15,91.97h4.17v20.13h-4.17V91.97z"></path>
	<path class="st2" d="M561.52,112.43c-5.74,0-10.08-4.09-10.08-10.41c0-6.32,4.53-10.38,10.27-10.38c5.74,0,10.27,4.06,10.27,10.38
		C571.97,108.33,567.29,112.43,561.52,112.43z M561.52,108.81c3.11,0,6.17-2.23,6.17-6.8c0-4.57-2.96-6.76-6.06-6.76
		c-3.14,0-5.96,2.19-5.96,6.76C555.68,106.58,558.38,108.81,561.52,108.81z"></path>
	<path class="st2" d="M590.38,100.84c0-3.69-2.01-5.59-5.04-5.59c-3.07,0-5.08,1.9-5.08,5.59v11.25h-4.17V91.97h4.17v2.3
		c1.35-1.64,3.58-2.63,5.99-2.63c4.71,0,8.26,2.96,8.26,8.59v11.87h-4.13V100.84z"></path>
	<path class="st2" d="M607.11,112.43c-4.82,0-8.22-2.85-8.4-6.5h4.31c0.15,1.64,1.72,3,4.02,3c2.41,0,3.69-1.02,3.69-2.41
		c0-3.95-11.69-1.68-11.69-9.06c0-3.22,3-5.81,7.75-5.81c4.57,0,7.56,2.45,7.78,6.47h-4.16c-0.15-1.75-1.5-2.96-3.76-2.96
		c-2.23,0-3.4,0.91-3.4,2.27c0,4.06,11.36,1.79,11.58,9.06C614.82,109.87,611.86,112.43,607.11,112.43z"></path>
</g>
<g>
	<path class="st4" d="M543.61,297.38H97.99c-2.86,0-5.18-2.32-5.18-5.18v-54.02c0-2.86,2.32-5.18,5.18-5.18h445.62
		c2.86,0,5.18,2.32,5.18,5.18v54.02C548.79,295.06,546.47,297.38,543.61,297.38z"></path>
</g>
<g>
	<path class="st2" d="M119.52,250.61h4.17v27.04h-4.17V250.61z"></path>
	<path class="st2" d="M137.9,277.98c-5.74,0-10.08-4.09-10.08-10.41c0-6.32,4.53-10.38,10.27-10.38c5.74,0,10.27,4.06,10.27,10.38
		C148.35,273.89,143.67,277.98,137.9,277.98z M137.9,274.36c3.11,0,6.17-2.23,6.17-6.8c0-4.57-2.96-6.76-6.06-6.76
		c-3.14,0-5.96,2.19-5.96,6.76C132.05,272.13,134.76,274.36,137.9,274.36z"></path>
	<path class="st2" d="M160.58,257.19c3.29,0,5.74,1.53,6.98,3.25v-2.92h4.2v20.46c0,5.48-3.54,9.61-9.83,9.61
		c-5.37,0-9.35-2.67-9.86-7.12h4.13c0.62,2.08,2.85,3.51,5.74,3.51c3.22,0,5.63-1.97,5.63-5.99v-3.36
		c-1.28,1.72-3.69,3.36-6.98,3.36c-5.3,0-9.5-4.27-9.5-10.49C151.09,261.28,155.29,257.19,160.58,257.19z M161.46,260.81
		c-3.11,0-6.1,2.34-6.1,6.69c0,4.35,3,6.87,6.1,6.87c3.14,0,6.1-2.45,6.1-6.8C167.56,263.26,164.6,260.81,161.46,260.81z"></path>
	<path class="st2" d="M185.35,257.19c3.4,0,5.74,1.61,6.98,3.25v-2.92h4.2v20.13h-4.2v-3c-1.28,1.72-3.69,3.32-7.05,3.32
		c-5.23,0-9.43-4.27-9.43-10.49C175.86,261.28,180.06,257.19,185.35,257.19z M186.23,260.81c-3.11,0-6.1,2.34-6.1,6.69
		c0,4.35,3,6.87,6.1,6.87c3.14,0,6.1-2.45,6.1-6.8C192.33,263.26,189.37,260.81,186.23,260.81z"></path>
	<path class="st2" d="M206.18,277.65h-4.17v-20.13h4.17v2.92c1.17-2.01,3.18-3.25,6.03-3.25v4.31h-1.06c-3.07,0-4.97,1.28-4.97,5.55
		V277.65z"></path>
	<path class="st2" d="M215.49,252.18c0-1.5,1.17-2.67,2.67-2.67c1.46,0,2.63,1.17,2.63,2.67c0,1.5-1.17,2.67-2.63,2.67
		C216.66,254.85,215.49,253.68,215.49,252.18z M216.04,257.52h4.17v20.13h-4.17V257.52z"></path>
	<path class="st2" d="M226.34,260.92h-2.37v-3.4h2.37v-5.01h4.2v5.01h4.9v3.4h-4.9v11.14c0,1.5,0.58,2.12,2.34,2.12h2.56v3.47h-3.29
		c-3.58,0-5.81-1.5-5.81-5.59V260.92z"></path>
	<path class="st2" d="M239.28,250.61h4.17v9.24c1.39-1.68,3.65-2.67,6.25-2.67c4.49,0,8,2.96,8,8.59v11.87h-4.13V266.4
		c0-3.69-2.01-5.59-5.04-5.59c-3.07,0-5.08,1.9-5.08,5.59v11.25h-4.17V250.61z"></path>
	<path class="st2" d="M291.52,266.4c0-3.69-2.01-5.59-5.04-5.59c-3.07,0-5.08,1.9-5.08,5.59v11.25h-4.13V266.4
		c0-3.69-2.01-5.59-5.04-5.59c-3.07,0-5.08,1.9-5.08,5.59v11.25h-4.17v-20.13h4.17v2.3c1.35-1.64,3.54-2.63,5.95-2.63
		c3.18,0,5.85,1.35,7.23,3.98c1.24-2.45,4.09-3.98,7.01-3.98c4.71,0,8.29,2.96,8.29,8.59v11.87h-4.13V266.4z"></path>
	<path class="st2" d="M300.4,252.18c0-1.5,1.17-2.67,2.67-2.67c1.46,0,2.63,1.17,2.63,2.67c0,1.5-1.17,2.67-2.63,2.67
		C301.57,254.85,300.4,253.68,300.4,252.18z M300.95,257.52h4.17v20.13h-4.17V257.52z"></path>
	<path class="st2" d="M319.07,257.19c4.93,0,8.15,2.45,9.28,6.69h-4.49c-0.69-1.94-2.3-3.18-4.79-3.18c-3.36,0-5.59,2.48-5.59,6.87
		c0,4.42,2.23,6.91,5.59,6.91c2.48,0,4.02-1.1,4.79-3.18h4.49c-1.13,3.95-4.35,6.69-9.28,6.69c-5.77,0-9.86-4.09-9.86-10.41
		C309.2,261.28,313.29,257.19,319.07,257.19z"></path>
	<path class="st2" d="M350.67,277.98c-5.77,0-10.05-4.09-10.05-10.41c0-6.32,4.09-10.38,10.05-10.38c5.74,0,9.79,3.98,9.79,9.9
		c0,0.69-0.04,1.35-0.15,2.05h-15.38c0.29,3.32,2.67,5.33,5.74,5.33c2.56,0,3.98-1.24,4.75-2.81h4.49
		C358.78,275.17,355.6,277.98,350.67,277.98z M344.97,265.78h11.14c-0.07-3.11-2.52-5.08-5.63-5.08
		C347.67,260.7,345.41,262.6,344.97,265.78z"></path>
	<path class="st2" d="M372.7,257.19c3.32,0,5.77,1.61,6.94,3.25v-2.92h4.2v29.7h-4.2v-12.5c-1.17,1.57-3.69,3.25-7.09,3.25
		c-5.19,0-9.39-4.27-9.39-10.49C363.16,261.28,367.36,257.19,372.7,257.19z M373.54,260.81c-3.11,0-6.1,2.34-6.1,6.69
		c0,4.35,3,6.87,6.1,6.87c3.14,0,6.1-2.45,6.1-6.8C379.64,263.26,376.68,260.81,373.54,260.81z"></path>
	<path class="st2" d="M407.55,277.65h-4.16v-2.41c-1.32,1.72-3.58,2.7-5.96,2.7c-4.71,0-8.29-2.96-8.29-8.59v-11.84h4.13v11.22
		c0,3.69,2.01,5.59,5.04,5.59c3.07,0,5.08-1.9,5.08-5.59v-11.22h4.16V277.65z"></path>
	<path class="st2" d="M421.14,257.19c3.4,0,5.74,1.61,6.98,3.25v-2.92h4.2v20.13h-4.2v-3c-1.28,1.72-3.69,3.32-7.05,3.32
		c-5.22,0-9.43-4.27-9.43-10.49C411.64,261.28,415.84,257.19,421.14,257.19z M422.02,260.81c-3.11,0-6.1,2.34-6.1,6.69
		c0,4.35,3,6.87,6.1,6.87c3.14,0,6.1-2.45,6.1-6.8C428.12,263.26,425.16,260.81,422.02,260.81z"></path>
	<path class="st2" d="M438.46,260.92h-2.37v-3.4h2.37v-5.01h4.2v5.01h4.9v3.4h-4.9v11.14c0,1.5,0.58,2.12,2.34,2.12h2.56v3.47h-3.29
		c-3.58,0-5.81-1.5-5.81-5.59V260.92z"></path>
	<path class="st2" d="M450.84,252.18c0-1.5,1.17-2.67,2.67-2.67c1.46,0,2.63,1.17,2.63,2.67c0,1.5-1.17,2.67-2.63,2.67
		C452.01,254.85,450.84,253.68,450.84,252.18z M451.39,257.52h4.17v20.13h-4.17V257.52z"></path>
	<path class="st2" d="M469.77,277.98c-5.74,0-10.08-4.09-10.08-10.41c0-6.32,4.53-10.38,10.27-10.38c5.74,0,10.27,4.06,10.27,10.38
		C480.22,273.89,475.54,277.98,469.77,277.98z M469.77,274.36c3.11,0,6.17-2.23,6.17-6.8c0-4.57-2.96-6.76-6.06-6.76
		c-3.14,0-5.96,2.19-5.96,6.76C463.92,272.13,466.62,274.36,469.77,274.36z"></path>
	<path class="st2" d="M498.63,266.4c0-3.69-2.01-5.59-5.04-5.59c-3.07,0-5.08,1.9-5.08,5.59v11.25h-4.17v-20.13h4.17v2.3
		c1.35-1.64,3.58-2.63,5.99-2.63c4.71,0,8.26,2.96,8.26,8.59v11.87h-4.13V266.4z"></path>
	<path class="st2" d="M515.36,277.98c-4.82,0-8.22-2.85-8.4-6.5h4.31c0.15,1.64,1.72,3,4.02,3c2.41,0,3.69-1.02,3.69-2.41
		c0-3.95-11.69-1.68-11.69-9.06c0-3.22,3-5.81,7.75-5.81c4.57,0,7.56,2.45,7.78,6.47h-4.16c-0.15-1.75-1.5-2.96-3.76-2.96
		c-2.23,0-3.4,0.91-3.4,2.27c0,4.06,11.36,1.79,11.58,9.06C523.07,275.42,520.11,277.98,515.36,277.98z"></path>
</g>
<g>
	<path class="st5" d="M631.12,591.7H270.28c-2.86,0-5.18-2.32-5.18-5.18V532.5c0-2.86,2.32-5.18,5.18-5.18h360.84
		c2.86,0,5.18,2.32,5.18,5.18v54.02C636.3,589.38,633.98,591.7,631.12,591.7z"></path>
</g>
<g>
	<path class="st2" d="M294.58,551.51c3.29,0,5.74,1.53,6.98,3.25v-2.92h4.2v20.46c0,5.48-3.54,9.61-9.83,9.61
		c-5.37,0-9.35-2.67-9.86-7.12h4.13c0.62,2.08,2.85,3.51,5.74,3.51c3.22,0,5.63-1.97,5.63-5.99v-3.36
		c-1.28,1.72-3.69,3.36-6.98,3.36c-5.3,0-9.5-4.27-9.5-10.49C285.08,555.6,289.28,551.51,294.58,551.51z M295.46,555.12
		c-3.11,0-6.1,2.34-6.1,6.69c0,4.35,3,6.87,6.1,6.87c3.14,0,6.1-2.45,6.1-6.8C301.56,557.57,298.6,555.12,295.46,555.12z"></path>
	<path class="st2" d="M315.4,571.97h-4.17v-20.13h4.17v2.92c1.17-2.01,3.18-3.25,6.03-3.25v4.31h-1.06c-3.07,0-4.97,1.28-4.97,5.55
		V571.97z"></path>
	<path class="st2" d="M333.38,551.51c3.4,0,5.74,1.61,6.98,3.25v-2.92h4.2v20.13h-4.2v-3c-1.28,1.72-3.69,3.32-7.05,3.32
		c-5.22,0-9.43-4.27-9.43-10.49C323.88,555.6,328.08,551.51,333.38,551.51z M334.25,555.12c-3.11,0-6.1,2.34-6.1,6.69
		c0,4.35,3,6.87,6.1,6.87c3.14,0,6.1-2.45,6.1-6.8C340.36,557.57,337.4,555.12,334.25,555.12z"></path>
	<path class="st2" d="M361.22,551.51c5.3,0,9.46,4.09,9.46,10.3c0,6.21-4.17,10.49-9.46,10.49c-3.32,0-5.7-1.68-7.01-3.25v12.5
		h-4.17v-29.7h4.17v2.96C355.48,553.11,357.93,551.51,361.22,551.51z M360.3,555.12c-3.11,0-6.1,2.45-6.1,6.76c0,4.35,3,6.8,6.1,6.8
		c3.14,0,6.14-2.52,6.14-6.87C366.44,557.46,363.44,555.12,360.3,555.12z"></path>
	<path class="st2" d="M374.81,544.93h4.17v9.24c1.39-1.68,3.65-2.67,6.25-2.67c4.49,0,8,2.96,8,8.59v11.87h-4.13v-11.25
		c0-3.69-2.01-5.59-5.04-5.59c-3.07,0-5.08,1.9-5.08,5.59v11.25h-4.17V544.93z"></path>
	<path class="st2" d="M397.97,546.5c0-1.5,1.17-2.67,2.67-2.67c1.46,0,2.63,1.17,2.63,2.67c0,1.5-1.17,2.67-2.63,2.67
		C399.14,549.17,397.97,548,397.97,546.5z M398.52,551.84h4.17v20.13h-4.17V551.84z"></path>
	<path class="st2" d="M416.64,551.51c4.93,0,8.15,2.45,9.28,6.69h-4.49c-0.69-1.94-2.3-3.18-4.79-3.18c-3.36,0-5.59,2.48-5.59,6.87
		c0,4.42,2.23,6.91,5.59,6.91c2.48,0,4.02-1.1,4.79-3.18h4.49c-1.13,3.95-4.35,6.69-9.28,6.69c-5.77,0-9.86-4.09-9.86-10.41
		C406.77,555.6,410.86,551.51,416.64,551.51z"></path>
	<path class="st2" d="M438.19,551.51c3.4,0,5.74,1.61,6.98,3.25v-2.92h4.2v20.13h-4.2v-3c-1.28,1.72-3.69,3.32-7.05,3.32
		c-5.23,0-9.43-4.27-9.43-10.49C428.69,555.6,432.89,551.51,438.19,551.51z M439.07,555.12c-3.11,0-6.1,2.34-6.1,6.69
		c0,4.35,3,6.87,6.1,6.87c3.14,0,6.1-2.45,6.1-6.8C445.17,557.57,442.21,555.12,439.07,555.12z"></path>
	<path class="st2" d="M454.85,544.93h4.17v27.04h-4.17V544.93z"></path>
	<path class="st2" d="M481.3,572.3c-4.82,0-8.22-2.85-8.4-6.5h4.31c0.15,1.64,1.72,3,4.02,3c2.41,0,3.69-1.02,3.69-2.41
		c0-3.95-11.69-1.68-11.69-9.06c0-3.21,3-5.81,7.75-5.81c4.57,0,7.56,2.45,7.78,6.47h-4.16c-0.15-1.75-1.5-2.96-3.76-2.96
		c-2.23,0-3.4,0.91-3.4,2.26c0,4.06,11.36,1.79,11.58,9.06C489.01,569.74,486.05,572.3,481.3,572.3z"></path>
	<path class="st2" d="M502.24,572.3c-5.74,0-10.08-4.09-10.08-10.41c0-6.32,4.53-10.38,10.27-10.38c5.74,0,10.27,4.06,10.27,10.38
		C512.68,568.2,508.01,572.3,502.24,572.3z M502.24,568.68c3.11,0,6.17-2.23,6.17-6.8s-2.96-6.76-6.06-6.76
		c-3.14,0-5.96,2.19-5.96,6.76S499.09,568.68,502.24,568.68z"></path>
	<path class="st2" d="M516.81,544.93h4.17v27.04h-4.17V544.93z"></path>
	<path class="st2" d="M544.69,571.97h-4.16v-2.41c-1.32,1.72-3.58,2.7-5.96,2.7c-4.71,0-8.29-2.96-8.29-8.59v-11.84h4.13v11.22
		c0,3.69,2.01,5.59,5.04,5.59c3.07,0,5.08-1.9,5.08-5.59v-11.22h4.16V571.97z"></path>
	<path class="st2" d="M550.82,555.23h-2.37v-3.4h2.37v-5.01h4.2v5.01h4.9v3.4h-4.9v11.14c0,1.5,0.58,2.12,2.34,2.12h2.56v3.47h-3.29
		c-3.58,0-5.81-1.5-5.81-5.59V555.23z"></path>
	<path class="st2" d="M563.21,546.5c0-1.5,1.17-2.67,2.67-2.67c1.46,0,2.63,1.17,2.63,2.67c0,1.5-1.17,2.67-2.63,2.67
		C564.38,549.17,563.21,548,563.21,546.5z M563.76,551.84h4.17v20.13h-4.17V551.84z"></path>
	<path class="st2" d="M582.13,572.3c-5.74,0-10.08-4.09-10.08-10.41c0-6.32,4.53-10.38,10.27-10.38c5.74,0,10.27,4.06,10.27,10.38
		C592.58,568.2,587.91,572.3,582.13,572.3z M582.13,568.68c3.11,0,6.17-2.23,6.17-6.8s-2.96-6.76-6.06-6.76
		c-3.14,0-5.96,2.19-5.96,6.76S578.99,568.68,582.13,568.68z"></path>
	<path class="st2" d="M610.99,560.71c0-3.69-2.01-5.59-5.04-5.59c-3.07,0-5.08,1.9-5.08,5.59v11.25h-4.17v-20.13h4.17v2.3
		c1.35-1.64,3.58-2.63,5.99-2.63c4.71,0,8.26,2.96,8.26,8.59v11.87h-4.13V560.71z"></path>
</g>
<g>
	<path class="st5" d="M312,487.46H5.42c-2.86,0-5.18-2.32-5.18-5.18v-54.02c0-2.86,2.32-5.18,5.18-5.18H312
		c2.86,0,5.18,2.32,5.18,5.18v54.02C317.18,485.14,314.86,487.46,312,487.46z"></path>
</g>
<g>
	<path class="st2" d="M42.44,447.27c2.63,0,5.41,1.24,6.94,3.14v-9.72h4.2v27.04h-4.2v-3.03c-1.28,1.83-3.69,3.36-6.98,3.36
		c-5.3,0-9.5-4.27-9.5-10.49C32.9,451.36,37.1,447.27,42.44,447.27z M43.28,450.89c-3.11,0-6.1,2.34-6.1,6.69
		c0,4.35,3,6.87,6.1,6.87c3.14,0,6.1-2.45,6.1-6.8C49.38,453.33,46.42,450.89,43.28,450.89z"></path>
	<path class="st2" d="M63.23,467.73h-4.17V447.6h4.17v2.92c1.17-2.01,3.18-3.25,6.03-3.25v4.31h-1.06c-3.07,0-4.97,1.28-4.97,5.55
		V467.73z"></path>
	<path class="st2" d="M81.2,447.27c3.4,0,5.74,1.61,6.98,3.25v-2.92h4.2v20.13h-4.2v-3c-1.28,1.72-3.69,3.32-7.05,3.32
		c-5.22,0-9.43-4.27-9.43-10.49C71.7,451.36,75.9,447.27,81.2,447.27z M82.08,450.89c-3.11,0-6.1,2.34-6.1,6.69
		c0,4.35,3,6.87,6.1,6.87c3.14,0,6.1-2.45,6.1-6.8C88.18,453.33,85.22,450.89,82.08,450.89z"></path>
	<path class="st2" d="M95.48,447.6h4.24l4.2,16.19l4.27-16.19h4.35l4.09,16.11l4.16-16.11h4.09l-6.25,20.13h-4.38l-4.06-14.87
		l-4.06,14.87h-4.38L95.48,447.6z"></path>
	<path class="st2" d="M148.68,447.27c5.33,0,9.46,4.09,9.46,10.3c0,6.21-4.17,10.49-9.46,10.49c-3.32,0-5.7-1.5-7.01-3.25v2.92
		h-4.17v-27.04h4.17v9.9C142.98,448.77,145.5,447.27,148.68,447.27z M147.76,450.89c-3.11,0-6.1,2.45-6.1,6.76c0,4.35,3,6.8,6.1,6.8
		c3.14,0,6.14-2.52,6.14-6.87C153.9,453.23,150.91,450.89,147.76,450.89z"></path>
	<path class="st2" d="M176.08,447.6h4.31l-12.35,29.59h-4.31l4.09-9.79l-7.93-19.8h4.64l5.66,15.34L176.08,447.6z"></path>
	<path class="st2" d="M193.03,440.69h4.17v9.24c1.39-1.68,3.65-2.67,6.25-2.67c4.49,0,8,2.96,8,8.59v11.87h-4.13v-11.25
		c0-3.69-2.01-5.59-5.04-5.59c-3.07,0-5.08,1.9-5.08,5.59v11.25h-4.17V440.69z"></path>
	<path class="st2" d="M224.85,447.27c3.4,0,5.74,1.61,6.98,3.25v-2.92h4.2v20.13h-4.2v-3c-1.28,1.72-3.69,3.32-7.05,3.32
		c-5.22,0-9.43-4.27-9.43-10.49C215.35,451.36,219.55,447.27,224.85,447.27z M225.73,450.89c-3.11,0-6.1,2.34-6.1,6.69
		c0,4.35,3,6.87,6.1,6.87c3.14,0,6.1-2.45,6.1-6.8C231.83,453.33,228.87,450.89,225.73,450.89z"></path>
	<path class="st2" d="M255.79,456.48c0-3.69-2.01-5.59-5.04-5.59c-3.07,0-5.08,1.9-5.08,5.59v11.25h-4.17V447.6h4.17v2.3
		c1.35-1.64,3.58-2.63,5.99-2.63c4.71,0,8.26,2.96,8.26,8.59v11.87h-4.13V456.48z"></path>
	<path class="st2" d="M273.37,447.27c2.63,0,5.41,1.24,6.94,3.14v-9.72h4.2v27.04h-4.2v-3.03c-1.28,1.83-3.69,3.36-6.98,3.36
		c-5.3,0-9.5-4.27-9.5-10.49C263.83,451.36,268.03,447.27,273.37,447.27z M274.21,450.89c-3.11,0-6.1,2.34-6.1,6.69
		c0,4.35,3,6.87,6.1,6.87c3.14,0,6.1-2.45,6.1-6.8C280.31,453.33,277.35,450.89,274.21,450.89z"></path>
</g>
<g>
	<path class="st5" d="M320.96,711.27H67.66c-2.86,0-5.18-2.32-5.18-5.18v-54.02c0-2.86,2.32-5.18,5.18-5.18h253.3
		c2.86,0,5.18,2.32,5.18,5.18v54.02C326.14,708.95,323.82,711.27,320.96,711.27z"></path>
</g>
<g>
	<path class="st2" d="M101.99,671.07c2.63,0,5.41,1.24,6.94,3.14v-9.72h4.2v27.04h-4.2v-3.03c-1.28,1.83-3.69,3.36-6.98,3.36
		c-5.3,0-9.5-4.27-9.5-10.49C92.45,675.16,96.66,671.07,101.99,671.07z M102.83,674.69c-3.11,0-6.1,2.34-6.1,6.69
		c0,4.35,3,6.87,6.1,6.87c3.14,0,6.1-2.45,6.1-6.8C108.93,677.14,105.97,674.69,102.83,674.69z"></path>
	<path class="st2" d="M122.78,691.53h-4.17V671.4h4.17v2.92c1.17-2.01,3.18-3.25,6.03-3.25v4.31h-1.06c-3.07,0-4.97,1.28-4.97,5.55
		V691.53z"></path>
	<path class="st2" d="M140.75,671.07c3.4,0,5.74,1.61,6.98,3.25v-2.92h4.2v20.13h-4.2v-3c-1.28,1.72-3.69,3.32-7.05,3.32
		c-5.22,0-9.43-4.27-9.43-10.49C131.25,675.16,135.45,671.07,140.75,671.07z M141.63,674.69c-3.11,0-6.1,2.34-6.1,6.69
		c0,4.35,3,6.87,6.1,6.87c3.14,0,6.1-2.45,6.1-6.8C147.73,677.14,144.77,674.69,141.63,674.69z"></path>
	<path class="st2" d="M155.04,671.4h4.24l4.2,16.19l4.27-16.19h4.35l4.09,16.11l4.16-16.11h4.09l-6.25,20.13h-4.38l-4.06-14.87
		l-4.06,14.87h-4.38L155.04,671.4z"></path>
	<path class="st2" d="M205.78,691.86c-5.74,0-10.08-4.09-10.08-10.41c0-6.32,4.53-10.38,10.27-10.38c5.74,0,10.27,4.06,10.27,10.38
		C216.23,687.77,211.55,691.86,205.78,691.86z M205.78,688.25c3.11,0,6.17-2.23,6.17-6.8c0-4.57-2.96-6.76-6.06-6.76
		c-3.14,0-5.96,2.19-5.96,6.76C199.94,686.02,202.64,688.25,205.78,688.25z"></path>
	<path class="st2" d="M234.64,680.28c0-3.69-2.01-5.59-5.04-5.59c-3.07,0-5.08,1.9-5.08,5.59v11.25h-4.17V671.4h4.17v2.3
		c1.35-1.64,3.58-2.63,5.99-2.63c4.71,0,8.26,2.96,8.26,8.59v11.87h-4.13V680.28z"></path>
	<path class="st2" d="M264.75,671.07c5.3,0,9.46,4.09,9.46,10.3c0,6.21-4.17,10.49-9.46,10.49c-3.32,0-5.7-1.68-7.01-3.25v12.5
		h-4.17v-29.7h4.17v2.96C259.01,672.68,261.46,671.07,264.75,671.07z M263.83,674.69c-3.11,0-6.1,2.45-6.1,6.76
		c0,4.35,3,6.8,6.1,6.8c3.14,0,6.14-2.52,6.14-6.87C269.97,677.03,266.97,674.69,263.83,674.69z"></path>
	<path class="st2" d="M286.81,671.07c4.93,0,8.15,2.45,9.28,6.69h-4.49c-0.69-1.94-2.3-3.18-4.79-3.18c-3.36,0-5.59,2.48-5.59,6.87
		c0,4.42,2.23,6.91,5.59,6.91c2.48,0,4.02-1.1,4.79-3.18h4.49c-1.13,3.95-4.35,6.69-9.28,6.69c-5.77,0-9.86-4.09-9.86-10.41
		C276.95,675.16,281.04,671.07,286.81,671.07z"></path>
</g>
<g>
	<path class="st6" d="M1571.55,800.17h-237.97c-2.86,0-5.18-2.32-5.18-5.18V694.98c0-2.86,2.32-5.18,5.18-5.18h237.97
		c2.86,0,5.18,2.32,5.18,5.18v100.01C1576.73,797.86,1574.41,800.17,1571.55,800.17z"></path>
</g>
<g>
	<path class="st2" d="M1372.47,713.99c3.32,0,5.77,1.61,6.94,3.25v-2.92h4.2v29.7h-4.2v-12.5c-1.17,1.57-3.69,3.25-7.09,3.25
		c-5.19,0-9.39-4.27-9.39-10.49C1362.93,718.09,1367.14,713.99,1372.47,713.99z M1373.31,717.61c-3.11,0-6.1,2.34-6.1,6.69
		c0,4.35,3,6.87,6.1,6.87c3.14,0,6.1-2.45,6.1-6.8C1379.41,720.06,1376.45,717.61,1373.31,717.61z"></path>
	<path class="st2" d="M1407.32,734.45h-4.16v-2.41c-1.32,1.72-3.58,2.7-5.96,2.7c-4.71,0-8.29-2.96-8.29-8.59v-11.84h4.13v11.22
		c0,3.69,2.01,5.59,5.04,5.59c3.07,0,5.08-1.9,5.08-5.59v-11.22h4.16V734.45z"></path>
	<path class="st2" d="M1420.91,713.99c3.4,0,5.74,1.61,6.98,3.25v-2.92h4.2v20.13h-4.2v-3c-1.28,1.72-3.69,3.32-7.05,3.32
		c-5.22,0-9.43-4.27-9.43-10.49C1411.41,718.09,1415.62,713.99,1420.91,713.99z M1421.79,717.61c-3.1,0-6.1,2.34-6.1,6.69
		c0,4.35,3,6.87,6.1,6.87c3.14,0,6.1-2.45,6.1-6.8C1427.89,720.06,1424.93,717.61,1421.79,717.61z"></path>
	<path class="st2" d="M1445.72,713.99c2.63,0,5.41,1.24,6.94,3.14v-9.72h4.2v27.04h-4.2v-3.03c-1.28,1.83-3.69,3.36-6.98,3.36
		c-5.3,0-9.5-4.27-9.5-10.49C1436.18,718.09,1440.39,713.99,1445.72,713.99z M1446.56,717.61c-3.11,0-6.1,2.34-6.1,6.69
		c0,4.35,3,6.87,6.1,6.87c3.14,0,6.1-2.45,6.1-6.8C1452.66,720.06,1449.7,717.61,1446.56,717.61z"></path>
	<path class="st2" d="M1466.51,734.45h-4.17v-20.13h4.17v2.92c1.17-2.01,3.18-3.25,6.03-3.25v4.31h-1.06
		c-3.07,0-4.97,1.28-4.97,5.55V734.45z"></path>
	<path class="st2" d="M1484.48,713.99c3.4,0,5.74,1.61,6.98,3.25v-2.92h4.2v20.13h-4.2v-3c-1.28,1.72-3.69,3.32-7.05,3.32
		c-5.22,0-9.43-4.27-9.43-10.49C1474.98,718.09,1479.18,713.99,1484.48,713.99z M1485.36,717.61c-3.1,0-6.1,2.34-6.1,6.69
		c0,4.35,3,6.87,6.1,6.87c3.14,0,6.1-2.45,6.1-6.8C1491.46,720.06,1488.5,717.61,1485.36,717.61z"></path>
	<path class="st2" d="M1501.8,717.72h-2.38v-3.4h2.38v-5.01h4.2v5.01h4.9v3.4h-4.9v11.14c0,1.5,0.59,2.12,2.34,2.12h2.56v3.47h-3.29
		c-3.58,0-5.81-1.5-5.81-5.59V717.72z"></path>
	<path class="st2" d="M1514.18,708.99c0-1.5,1.17-2.67,2.67-2.67c1.46,0,2.63,1.17,2.63,2.67c0,1.5-1.17,2.67-2.63,2.67
		C1515.35,711.66,1514.18,710.49,1514.18,708.99z M1514.73,714.32h4.16v20.13h-4.16V714.32z"></path>
	<path class="st2" d="M1532.85,713.99c4.93,0,8.15,2.45,9.28,6.69h-4.49c-0.69-1.94-2.3-3.18-4.79-3.18c-3.36,0-5.59,2.48-5.59,6.87
		c0,4.42,2.23,6.91,5.59,6.91c2.48,0,4.02-1.1,4.79-3.18h4.49c-1.13,3.95-4.35,6.69-9.28,6.69c-5.77,0-9.86-4.09-9.86-10.41
		C1522.99,718.09,1527.08,713.99,1532.85,713.99z"></path>
	<path class="st2" d="M1383.05,761.56h-2.37v-3.4h2.37v-1.43c0-4.64,2.37-6.65,7.64-6.65v3.47c-2.56,0-3.43,0.88-3.43,3.18v1.43
		h3.73v3.4h-3.73v16.73h-4.2V761.56z"></path>
	<path class="st2" d="M1403.4,778.62c-5.73,0-10.08-4.09-10.08-10.41c0-6.32,4.53-10.38,10.27-10.38c5.74,0,10.27,4.06,10.27,10.38
		C1413.85,774.53,1409.17,778.62,1403.4,778.62z M1403.4,775.01c3.11,0,6.17-2.23,6.17-6.8c0-4.57-2.96-6.76-6.06-6.76
		c-3.14,0-5.96,2.19-5.96,6.76C1397.55,772.78,1400.25,775.01,1403.4,775.01z"></path>
	<path class="st2" d="M1422.14,778.3h-4.16v-20.13h4.16v2.92c1.17-2.01,3.18-3.25,6.03-3.25v4.31h-1.06c-3.07,0-4.97,1.28-4.97,5.55
		V778.3z"></path>
	<path class="st2" d="M1460.53,767.04c0-3.69-2.01-5.59-5.04-5.59c-3.07,0-5.08,1.9-5.08,5.59v11.25h-4.13v-11.25
		c0-3.69-2.01-5.59-5.04-5.59c-3.07,0-5.08,1.9-5.08,5.59v11.25H1432v-20.13h4.16v2.3c1.35-1.64,3.54-2.63,5.95-2.63
		c3.18,0,5.85,1.35,7.23,3.98c1.24-2.45,4.09-3.98,7.01-3.98c4.71,0,8.29,2.96,8.29,8.59v11.87h-4.13V767.04z"></path>
	<path class="st2" d="M1488.19,778.3h-4.16v-2.41c-1.31,1.72-3.58,2.7-5.95,2.7c-4.71,0-8.29-2.96-8.29-8.59v-11.84h4.13v11.22
		c0,3.69,2.01,5.59,5.04,5.59c3.07,0,5.08-1.9,5.08-5.59v-11.22h4.16V778.3z"></path>
	<path class="st2" d="M1493.67,751.26h4.17v27.04h-4.17V751.26z"></path>
	<path class="st2" d="M1511.42,757.84c3.4,0,5.74,1.61,6.98,3.25v-2.92h4.2v20.13h-4.2v-3c-1.28,1.72-3.69,3.32-7.05,3.32
		c-5.22,0-9.43-4.27-9.43-10.49S1506.13,757.84,1511.42,757.84z M1512.3,761.45c-3.1,0-6.1,2.34-6.1,6.69s3,6.87,6.1,6.87
		c3.14,0,6.1-2.45,6.1-6.8C1518.4,763.9,1515.44,761.45,1512.3,761.45z"></path>
</g>
<g>
	<path class="st6" d="M1455.8,619.29h-421.92c-2.86,0-5.18-2.32-5.18-5.18v-54.02c0-2.86,2.32-5.18,5.18-5.18h421.92
		c2.86,0,5.18,2.32,5.18,5.18v54.02C1460.98,616.97,1458.66,619.29,1455.8,619.29z"></path>
</g>
<g>
	<path class="st2" d="M1067.22,579.1c3.32,0,5.77,1.61,6.94,3.25v-2.92h4.2v29.7h-4.2v-12.5c-1.17,1.57-3.69,3.25-7.09,3.25
		c-5.19,0-9.39-4.27-9.39-10.49C1057.68,583.19,1061.89,579.1,1067.22,579.1z M1068.06,582.72c-3.11,0-6.1,2.34-6.1,6.69
		c0,4.35,3,6.87,6.1,6.87c3.14,0,6.1-2.45,6.1-6.8C1074.16,585.16,1071.2,582.72,1068.06,582.72z"></path>
	<path class="st2" d="M1102.07,599.56h-4.16v-2.41c-1.32,1.72-3.58,2.7-5.96,2.7c-4.71,0-8.29-2.96-8.29-8.59v-11.84h4.13v11.22
		c0,3.69,2.01,5.59,5.04,5.59c3.07,0,5.08-1.9,5.08-5.59v-11.22h4.16V599.56z"></path>
	<path class="st2" d="M1115.66,579.1c3.4,0,5.74,1.61,6.98,3.25v-2.92h4.2v20.13h-4.2v-3c-1.28,1.72-3.69,3.32-7.05,3.32
		c-5.22,0-9.43-4.27-9.43-10.49C1106.16,583.19,1110.36,579.1,1115.66,579.1z M1116.54,582.72c-3.11,0-6.1,2.34-6.1,6.69
		c0,4.35,3,6.87,6.1,6.87c3.14,0,6.1-2.45,6.1-6.8C1122.64,585.16,1119.68,582.72,1116.54,582.72z"></path>
	<path class="st2" d="M1140.47,579.1c2.63,0,5.41,1.24,6.94,3.14v-9.72h4.2v27.04h-4.2v-3.03c-1.28,1.83-3.69,3.36-6.98,3.36
		c-5.3,0-9.5-4.27-9.5-10.49C1130.93,583.19,1135.13,579.1,1140.47,579.1z M1141.31,582.72c-3.11,0-6.1,2.34-6.1,6.69
		c0,4.35,3,6.87,6.1,6.87c3.14,0,6.1-2.45,6.1-6.8C1147.41,585.16,1144.45,582.72,1141.31,582.72z"></path>
	<path class="st2" d="M1161.26,599.56h-4.17v-20.13h4.17v2.92c1.17-2.01,3.18-3.25,6.03-3.25v4.31h-1.06
		c-3.07,0-4.97,1.28-4.97,5.55V599.56z"></path>
	<path class="st2" d="M1179.23,579.1c3.4,0,5.74,1.61,6.98,3.25v-2.92h4.2v20.13h-4.2v-3c-1.28,1.72-3.69,3.32-7.05,3.32
		c-5.23,0-9.43-4.27-9.43-10.49C1169.73,583.19,1173.93,579.1,1179.23,579.1z M1180.11,582.72c-3.1,0-6.1,2.34-6.1,6.69
		c0,4.35,3,6.87,6.1,6.87c3.14,0,6.1-2.45,6.1-6.8C1186.21,585.16,1183.25,582.72,1180.11,582.72z"></path>
	<path class="st2" d="M1196.55,582.83h-2.38v-3.4h2.38v-5.01h4.2v5.01h4.9v3.4h-4.9v11.14c0,1.5,0.59,2.12,2.34,2.12h2.56v3.47
		h-3.29c-3.58,0-5.81-1.5-5.81-5.59V582.83z"></path>
	<path class="st2" d="M1208.93,574.09c0-1.5,1.17-2.67,2.67-2.67c1.46,0,2.63,1.17,2.63,2.67c0,1.5-1.17,2.67-2.63,2.67
		C1210.1,576.76,1208.93,575.59,1208.93,574.09z M1209.48,579.43h4.16v20.13h-4.16V579.43z"></path>
	<path class="st2" d="M1227.6,579.1c4.93,0,8.15,2.45,9.28,6.69h-4.49c-0.69-1.94-2.3-3.18-4.79-3.18c-3.36,0-5.59,2.48-5.59,6.87
		c0,4.42,2.23,6.91,5.59,6.91c2.48,0,4.02-1.1,4.79-3.18h4.49c-1.13,3.95-4.35,6.69-9.28,6.69c-5.77,0-9.86-4.09-9.86-10.41
		C1217.74,583.19,1221.83,579.1,1227.6,579.1z"></path>
	<path class="st2" d="M1259.2,599.89c-5.77,0-10.05-4.09-10.05-10.41c0-6.32,4.09-10.38,10.05-10.38c5.74,0,9.79,3.98,9.79,9.9
		c0,0.69-0.04,1.35-0.15,2.05h-15.38c0.29,3.32,2.67,5.33,5.74,5.33c2.56,0,3.98-1.24,4.75-2.81h4.49
		C1267.31,597.07,1264.13,599.89,1259.2,599.89z M1253.5,587.68h11.14c-0.07-3.1-2.52-5.08-5.63-5.08
		C1256.21,582.61,1253.94,584.51,1253.5,587.68z"></path>
	<path class="st2" d="M1281.23,579.1c3.32,0,5.77,1.61,6.94,3.25v-2.92h4.2v29.7h-4.2v-12.5c-1.17,1.57-3.69,3.25-7.09,3.25
		c-5.19,0-9.39-4.27-9.39-10.49C1271.7,583.19,1275.9,579.1,1281.23,579.1z M1282.07,582.72c-3.1,0-6.1,2.34-6.1,6.69
		c0,4.35,3,6.87,6.1,6.87c3.14,0,6.1-2.45,6.1-6.8C1288.17,585.16,1285.21,582.72,1282.07,582.72z"></path>
	<path class="st2" d="M1316.08,599.56h-4.16v-2.41c-1.32,1.72-3.58,2.7-5.95,2.7c-4.71,0-8.29-2.96-8.29-8.59v-11.84h4.13v11.22
		c0,3.69,2.01,5.59,5.04,5.59c3.07,0,5.08-1.9,5.08-5.59v-11.22h4.16V599.56z"></path>
	<path class="st2" d="M1329.68,579.1c3.4,0,5.74,1.61,6.98,3.25v-2.92h4.2v20.13h-4.2v-3c-1.28,1.72-3.69,3.32-7.05,3.32
		c-5.22,0-9.43-4.27-9.43-10.49C1320.18,583.19,1324.38,579.1,1329.68,579.1z M1330.55,582.72c-3.11,0-6.1,2.34-6.1,6.69
		c0,4.35,3,6.87,6.1,6.87c3.14,0,6.1-2.45,6.1-6.8C1336.65,585.16,1333.69,582.72,1330.55,582.72z"></path>
	<path class="st2" d="M1346.99,582.83h-2.38v-3.4h2.38v-5.01h4.2v5.01h4.9v3.4h-4.9v11.14c0,1.5,0.59,2.12,2.34,2.12h2.56v3.47
		h-3.29c-3.58,0-5.81-1.5-5.81-5.59V582.83z"></path>
	<path class="st2" d="M1359.38,574.09c0-1.5,1.17-2.67,2.67-2.67c1.46,0,2.63,1.17,2.63,2.67c0,1.5-1.17,2.67-2.63,2.67
		C1360.55,576.76,1359.38,575.59,1359.38,574.09z M1359.92,579.43h4.16v20.13h-4.16V579.43z"></path>
	<path class="st2" d="M1378.3,599.89c-5.74,0-10.08-4.09-10.08-10.41c0-6.32,4.53-10.38,10.27-10.38c5.74,0,10.27,4.06,10.27,10.38
		C1388.75,595.8,1384.07,599.89,1378.3,599.89z M1378.3,596.27c3.1,0,6.17-2.23,6.17-6.8s-2.96-6.76-6.06-6.76
		c-3.14,0-5.95,2.19-5.95,6.76S1375.16,596.27,1378.3,596.27z"></path>
	<path class="st2" d="M1407.16,588.31c0-3.69-2.01-5.59-5.04-5.59c-3.07,0-5.08,1.9-5.08,5.59v11.25h-4.16v-20.13h4.16v2.3
		c1.35-1.64,3.58-2.63,5.99-2.63c4.71,0,8.26,2.96,8.26,8.59v11.87h-4.13V588.31z"></path>
	<path class="st2" d="M1423.89,599.89c-4.82,0-8.22-2.85-8.4-6.5h4.31c0.15,1.64,1.72,3,4.02,3c2.41,0,3.69-1.02,3.69-2.41
		c0-3.95-11.69-1.68-11.69-9.06c0-3.21,3-5.81,7.75-5.81c4.57,0,7.56,2.45,7.78,6.47h-4.16c-0.15-1.75-1.5-2.96-3.76-2.96
		c-2.23,0-3.4,0.91-3.4,2.26c0,4.06,11.36,1.79,11.58,9.06C1431.6,597.33,1428.64,599.89,1423.89,599.89z"></path>
</g>
<g>
	<path class="st7" d="M1018.31,766.45H567.83c-2.86,0-5.18-2.32-5.18-5.18v-54.02c0-2.86,2.32-5.18,5.18-5.18h450.47
		c2.86,0,5.18,2.32,5.18,5.18v54.02C1023.49,764.13,1021.17,766.45,1018.31,766.45z"></path>
</g>
<g>
	<path class="st2" d="M598.71,747.05c-5.77,0-10.05-4.09-10.05-10.41c0-6.32,4.09-10.38,10.05-10.38c5.74,0,9.79,3.98,9.79,9.9
		c0,0.69-0.04,1.35-0.15,2.05h-15.38c0.29,3.32,2.67,5.33,5.74,5.33c2.56,0,3.98-1.24,4.75-2.81h4.49
		C606.82,744.23,603.64,747.05,598.71,747.05z M593.01,734.84h11.14c-0.07-3.1-2.52-5.08-5.63-5.08
		C595.72,729.77,593.45,731.67,593.01,734.84z"></path>
	<path class="st2" d="M618.66,739.89l-4.09,6.83h-4.35l6.5-9.9l-6.5-10.23h4.71l4.35,6.83l4.09-6.83h4.35l-6.5,9.94l6.5,10.19h-4.71
		L618.66,739.89z"></path>
	<path class="st2" d="M642.01,726.26c5.3,0,9.46,4.09,9.46,10.3c0,6.21-4.17,10.49-9.46,10.49c-3.32,0-5.7-1.68-7.01-3.25v12.5
		h-4.17v-29.7h4.17v2.96C636.27,727.87,638.72,726.26,642.01,726.26z M641.09,729.87c-3.11,0-6.1,2.45-6.1,6.76
		c0,4.35,3,6.8,6.1,6.8c3.14,0,6.14-2.52,6.14-6.87C647.23,732.21,644.23,729.87,641.09,729.87z"></path>
	<path class="st2" d="M664.33,747.05c-5.74,0-10.08-4.09-10.08-10.41c0-6.32,4.53-10.38,10.27-10.38c5.74,0,10.27,4.06,10.27,10.38
		C674.78,742.95,670.1,747.05,664.33,747.05z M664.33,743.43c3.11,0,6.17-2.23,6.17-6.8s-2.96-6.76-6.06-6.76
		c-3.14,0-5.96,2.19-5.96,6.76S661.18,743.43,664.33,743.43z"></path>
	<path class="st2" d="M693.19,735.46c0-3.69-2.01-5.59-5.04-5.59c-3.07,0-5.08,1.9-5.08,5.59v11.25h-4.17v-20.13h4.17v2.3
		c1.35-1.64,3.58-2.63,5.99-2.63c4.71,0,8.26,2.96,8.26,8.59v11.87h-4.13V735.46z"></path>
	<path class="st2" d="M711.27,747.05c-5.77,0-10.05-4.09-10.05-10.41c0-6.32,4.09-10.38,10.05-10.38c5.74,0,9.79,3.98,9.79,9.9
		c0,0.69-0.04,1.35-0.15,2.05h-15.38c0.29,3.32,2.67,5.33,5.74,5.33c2.56,0,3.98-1.24,4.75-2.81h4.49
		C719.38,744.23,716.2,747.05,711.27,747.05z M705.57,734.84h11.14c-0.07-3.1-2.52-5.08-5.63-5.08
		C708.28,729.77,706.01,731.67,705.57,734.84z"></path>
	<path class="st2" d="M739.44,735.46c0-3.69-2.01-5.59-5.04-5.59c-3.07,0-5.08,1.9-5.08,5.59v11.25h-4.17v-20.13h4.17v2.3
		c1.35-1.64,3.58-2.63,5.99-2.63c4.71,0,8.26,2.96,8.26,8.59v11.87h-4.13V735.46z"></path>
	<path class="st2" d="M749.52,729.98h-2.37v-3.4h2.37v-5.01h4.2v5.01h4.9v3.4h-4.9v11.14c0,1.5,0.58,2.12,2.34,2.12h2.56v3.47h-3.29
		c-3.58,0-5.81-1.5-5.81-5.59V729.98z"></path>
	<path class="st2" d="M761.91,721.25c0-1.5,1.17-2.67,2.67-2.67c1.46,0,2.63,1.17,2.63,2.67c0,1.5-1.17,2.67-2.63,2.67
		C763.08,723.92,761.91,722.75,761.91,721.25z M762.45,726.59h4.17v20.13h-4.17V726.59z"></path>
	<path class="st2" d="M780.21,726.26c3.4,0,5.74,1.61,6.98,3.25v-2.92h4.2v20.13h-4.2v-3c-1.28,1.72-3.69,3.32-7.05,3.32
		c-5.22,0-9.43-4.27-9.43-10.49C770.71,730.35,774.91,726.26,780.21,726.26z M781.09,729.87c-3.11,0-6.1,2.34-6.1,6.69
		c0,4.35,3,6.87,6.1,6.87c3.14,0,6.1-2.45,6.1-6.8C787.19,732.32,784.23,729.87,781.09,729.87z"></path>
	<path class="st2" d="M796.87,719.68h4.17v27.04h-4.17V719.68z"></path>
	<path class="st2" d="M824.67,747.05c-5.77,0-10.05-4.09-10.05-10.41c0-6.32,4.09-10.38,10.05-10.38c5.74,0,9.79,3.98,9.79,9.9
		c0,0.69-0.04,1.35-0.15,2.05h-15.38c0.29,3.32,2.67,5.33,5.74,5.33c2.56,0,3.98-1.24,4.75-2.81h4.49
		C832.78,744.23,829.6,747.05,824.67,747.05z M818.97,734.84h11.14c-0.07-3.1-2.52-5.08-5.63-5.08
		C821.67,729.77,819.41,731.67,818.97,734.84z"></path>
	<path class="st2" d="M846.7,726.26c3.32,0,5.77,1.61,6.94,3.25v-2.92h4.2v29.7h-4.2v-12.5c-1.17,1.57-3.69,3.25-7.09,3.25
		c-5.19,0-9.39-4.27-9.39-10.49C837.16,730.35,841.37,726.26,846.7,726.26z M847.54,729.87c-3.11,0-6.1,2.34-6.1,6.69
		c0,4.35,3,6.87,6.1,6.87c3.14,0,6.1-2.45,6.1-6.8C853.64,732.32,850.68,729.87,847.54,729.87z"></path>
	<path class="st2" d="M881.55,746.72h-4.16v-2.41c-1.32,1.72-3.58,2.7-5.96,2.7c-4.71,0-8.29-2.96-8.29-8.59v-11.84h4.13v11.22
		c0,3.69,2.01,5.59,5.04,5.59c3.07,0,5.08-1.9,5.08-5.59v-11.22h4.16V746.72z"></path>
	<path class="st2" d="M895.14,726.26c3.4,0,5.74,1.61,6.98,3.25v-2.92h4.2v20.13h-4.2v-3c-1.28,1.72-3.69,3.32-7.05,3.32
		c-5.23,0-9.43-4.27-9.43-10.49C885.64,730.35,889.85,726.26,895.14,726.26z M896.02,729.87c-3.11,0-6.1,2.34-6.1,6.69
		c0,4.35,3,6.87,6.1,6.87c3.14,0,6.1-2.45,6.1-6.8C902.12,732.32,899.16,729.87,896.02,729.87z"></path>
	<path class="st2" d="M912.46,729.98h-2.37v-3.4h2.37v-5.01h4.2v5.01h4.9v3.4h-4.9v11.14c0,1.5,0.58,2.12,2.34,2.12h2.56v3.47h-3.29
		c-3.58,0-5.81-1.5-5.81-5.59V729.98z"></path>
	<path class="st2" d="M924.85,721.25c0-1.5,1.17-2.67,2.67-2.67c1.46,0,2.63,1.17,2.63,2.67c0,1.5-1.17,2.67-2.63,2.67
		C926.01,723.92,924.85,722.75,924.85,721.25z M925.39,726.59h4.17v20.13h-4.17V726.59z"></path>
	<path class="st2" d="M943.77,747.05c-5.74,0-10.08-4.09-10.08-10.41c0-6.32,4.53-10.38,10.27-10.38c5.74,0,10.27,4.06,10.27,10.38
		C954.22,742.95,949.54,747.05,943.77,747.05z M943.77,743.43c3.11,0,6.17-2.23,6.17-6.8s-2.96-6.76-6.06-6.76
		c-3.14,0-5.96,2.19-5.96,6.76S940.63,743.43,943.77,743.43z"></path>
	<path class="st2" d="M972.63,735.46c0-3.69-2.01-5.59-5.04-5.59c-3.07,0-5.08,1.9-5.08,5.59v11.25h-4.17v-20.13h4.17v2.3
		c1.35-1.64,3.58-2.63,5.99-2.63c4.71,0,8.26,2.96,8.26,8.59v11.87h-4.13V735.46z"></path>
	<path class="st2" d="M989.36,747.05c-4.82,0-8.22-2.85-8.4-6.5h4.31c0.15,1.64,1.72,3,4.02,3c2.41,0,3.69-1.02,3.69-2.41
		c0-3.95-11.69-1.68-11.69-9.06c0-3.21,3-5.81,7.75-5.81c4.57,0,7.56,2.45,7.78,6.47h-4.16c-0.15-1.75-1.5-2.96-3.76-2.96
		c-2.23,0-3.4,0.91-3.4,2.26c0,4.06,11.36,1.79,11.58,9.06C997.07,744.49,994.11,747.05,989.36,747.05z"></path>
</g>
<g>
	<path class="st1" d="M1615.66,101.17h-237.51c-2.86,0-5.18-2.32-5.18-5.18V5.18c0-2.86,2.32-5.18,5.18-5.18l237.51,0
		c2.86,0,5.18,2.32,5.18,5.18v90.81C1620.84,98.85,1618.52,101.17,1615.66,101.17z"></path>
</g>
<g>
	<path class="st1" d="M1636.43,251.4h-210.38c-2.86,0-5.18-2.32-5.18-5.18v-54.02c0-2.86,2.32-5.18,5.18-5.18h210.38
		c2.86,0,5.18,2.32,5.18,5.18v54.02C1641.61,249.08,1639.29,251.4,1636.43,251.4z"></path>
</g>
<g>
	<path class="st2" d="M1444.74,228.27c6.28-5.52,12.9-10.34,12.9-15.56c0-2.78-1.21-4.68-4.31-4.68c-2.92,0-4.49,2.05-4.6,5.04
		h-4.02c0.15-5.77,3.87-8.59,8.59-8.59c5.41,0,8.48,3.25,8.48,8.04c0,6.47-6.58,11.4-10.85,15.31h11.58v3.47h-17.76V228.27z"></path>
	<path class="st2" d="M1472.07,224.83l-5.3,6.83h-4.35l8.26-9.9l-4.71-10.23h4.71l3.14,6.83l5.3-6.83h4.35l-8.22,9.9l4.68,10.23
		h-4.71L1472.07,224.83z"></path>
	<path class="st2" d="M1506.67,209.16v7.56h7.38v3.51h-7.38v7.56h-3.87v-7.56h-7.38v-3.51h7.38v-7.56H1506.67z"></path>
	<path class="st2" d="M1538.12,204.41c5.3,0,8.19,3.07,8.19,6.94c0,3.18-2.01,5.33-4.09,6.03v0.15c2.78,0.84,4.57,3.14,4.57,6.83
		c0,4.24-3,7.45-8.55,7.45c-5.04,0-8.95-2.63-9.21-7.86h4.02c0.18,2.48,2.01,4.38,5.15,4.38c3.1,0,4.64-1.9,4.64-4.38
		c0-3.51-2.26-4.71-6.61-4.71h-0.95v-3.43h0.99c3.76-0.04,6.07-1.13,6.07-3.98c0-2.3-1.5-3.84-4.35-3.84
		c-2.92,0-4.27,1.75-4.53,3.62h-4.05C1529.68,207,1533.26,204.41,1538.12,204.41z"></path>
	<path class="st2" d="M1562.89,212.55h19.44v3.51h-19.44V212.55z M1562.89,220.85h19.44v3.51h-19.44V220.85z"></path>
	<path class="st2" d="M1615.61,204.96v3.65h-12.24v7.27c0.98-1.32,3.14-2.41,5.52-2.41c6.54,0,8.55,4.86,8.55,8.88
		c0,5.3-3.03,9.32-9.21,9.32c-5.48,0-8.66-3.03-9.28-7.2h4.06c0.55,2.27,2.45,3.73,5.26,3.73c3.58,0,5.19-2.45,5.19-5.74
		c0-3.47-1.72-5.44-5.19-5.44c-2.45,0-4.09,1.35-4.79,3.32h-3.95v-15.38H1615.61z"></path>
</g>
<g>
	<path class="st1" d="M1660.47,401.62h-326.88c-2.86,0-5.18-2.32-5.18-5.18v-54.02c0-2.86,2.32-5.18,5.18-5.18h326.88
		c2.86,0,5.18,2.32,5.18,5.18v54.02C1665.65,399.3,1663.33,401.62,1660.47,401.62z"></path>
</g>
<g>
	<path class="st2" d="M1357.64,366.91h15.02v3.51h-15.02V366.91z"></path>
	<path class="st2" d="M1386.68,354.63c5.3,0,8.18,3.07,8.18,6.94c0,3.18-2.01,5.33-4.09,6.03v0.15c2.78,0.84,4.57,3.14,4.57,6.83
		c0,4.24-3,7.45-8.55,7.45c-5.04,0-8.95-2.63-9.21-7.86h4.02c0.18,2.48,2.01,4.38,5.15,4.38c3.11,0,4.64-1.9,4.64-4.38
		c0-3.51-2.26-4.71-6.61-4.71h-0.95v-3.43h0.99c3.76-0.04,6.06-1.13,6.06-3.98c0-2.3-1.5-3.84-4.35-3.84
		c-2.92,0-4.27,1.75-4.53,3.62h-4.06C1378.24,357.23,1381.82,354.63,1386.68,354.63z"></path>
	<path class="st2" d="M1405.64,375.06l-5.3,6.83H1396l8.26-9.9l-4.71-10.23h4.71l3.14,6.83l5.3-6.83h4.35l-8.22,9.9l4.68,10.23
		h-4.71L1405.64,375.06z"></path>
	<path class="st2" d="M1440.24,359.38v7.56h7.38v3.51h-7.38v7.56h-3.87v-7.56h-7.38v-3.51h7.38v-7.56H1440.24z"></path>
	<path class="st2" d="M1475.75,376.33h-13.23v-3.14l12.28-17.61h5.04v17.14h3.4v3.62h-3.4v5.55h-4.09V376.33z M1475.93,372.72v-12.9
		l-8.62,12.9H1475.93z"></path>
	<path class="st2" d="M1498.4,362.78h19.44v3.51h-19.44V362.78z M1498.4,371.07h19.44v3.51h-19.44V371.07z"></path>
	<path class="st2" d="M1533.62,378.49c6.28-5.52,12.9-10.34,12.9-15.56c0-2.78-1.2-4.68-4.31-4.68c-2.92,0-4.49,2.05-4.6,5.04h-4.02
		c0.15-5.77,3.87-8.59,8.59-8.59c5.41,0,8.48,3.25,8.48,8.04c0,6.47-6.58,11.4-10.85,15.31h11.58v3.47h-17.76V378.49z"></path>
	<path class="st2" d="M1560.94,375.06l-5.3,6.83h-4.35l8.26-9.9l-4.71-10.23h4.71l3.14,6.83l5.3-6.83h4.35l-8.22,9.9l4.68,10.23
		h-4.71L1560.94,375.06z"></path>
	<path class="st2" d="M1595.54,359.38v7.56h7.38v3.51h-7.38v7.56h-3.87v-7.56h-7.38v-3.51h7.38v-7.56H1595.54z"></path>
	<path class="st2" d="M1632.66,361.43c-0.51-2.16-1.79-3.36-4.42-3.36c-3.76,0-5.7,2.56-5.81,9.54c1.32-2.19,3.95-3.36,6.72-3.36
		c4.79,0,8.18,3.22,8.18,8.77c0,5.04-3.03,8.88-8.73,8.88c-7.75,0-9.76-5.44-9.76-13.92c0-8.33,2.78-13.37,9.43-13.37
		c5.19,0,7.78,3.29,8.22,6.83H1632.66z M1622.91,372.94c0,3.29,1.94,5.48,5.48,5.48c3.07,0,4.97-2.08,4.97-5.22
		c0-3.18-1.61-5.44-5.12-5.44C1625.5,367.75,1622.91,369.39,1622.91,372.94z"></path>
</g>
<g>
	<path class="st2" d="M1415.27,18.06c3.29,0,5.74,1.53,6.98,3.25v-2.92h4.2v20.46c0,5.48-3.54,9.61-9.83,9.61
		c-5.37,0-9.35-2.67-9.87-7.12h4.13c0.62,2.08,2.85,3.51,5.74,3.51c3.22,0,5.63-1.97,5.63-5.99v-3.36
		c-1.28,1.72-3.69,3.36-6.98,3.36c-5.3,0-9.5-4.27-9.5-10.49C1405.77,22.15,1409.98,18.06,1415.27,18.06z M1416.15,21.67
		c-3.1,0-6.1,2.34-6.1,6.69c0,4.35,3,6.87,6.1,6.87c3.14,0,6.1-2.45,6.1-6.8C1422.25,24.12,1419.29,21.67,1416.15,21.67z"></path>
	<path class="st2" d="M1436.1,38.52h-4.17V18.39h4.17v2.92c1.17-2.01,3.18-3.25,6.03-3.25v4.31h-1.06c-3.07,0-4.97,1.28-4.97,5.55
		V38.52z"></path>
	<path class="st2" d="M1454.07,18.06c3.4,0,5.74,1.61,6.98,3.25v-2.92h4.2v20.13h-4.2v-3c-1.28,1.72-3.69,3.32-7.05,3.32
		c-5.22,0-9.43-4.27-9.43-10.49C1444.57,22.15,1448.77,18.06,1454.07,18.06z M1454.95,21.67c-3.1,0-6.1,2.34-6.1,6.69
		c0,4.35,3,6.87,6.1,6.87c3.14,0,6.1-2.45,6.1-6.8C1461.05,24.12,1458.09,21.67,1454.95,21.67z"></path>
	<path class="st2" d="M1481.91,18.06c5.3,0,9.46,4.09,9.46,10.3c0,6.21-4.16,10.49-9.46,10.49c-3.33,0-5.7-1.68-7.01-3.25v12.5
		h-4.17v-29.7h4.17v2.96C1476.17,19.66,1478.62,18.06,1481.91,18.06z M1481,21.67c-3.11,0-6.1,2.45-6.1,6.76
		c0,4.35,2.99,6.8,6.1,6.8c3.14,0,6.14-2.52,6.14-6.87C1487.14,24.01,1484.14,21.67,1481,21.67z"></path>
	<path class="st2" d="M1495.5,11.48h4.16v9.24c1.39-1.68,3.65-2.67,6.25-2.67c4.49,0,8,2.96,8,8.59v11.87h-4.13V27.26
		c0-3.69-2.01-5.59-5.04-5.59c-3.07,0-5.08,1.9-5.08,5.59v11.25h-4.16V11.48z"></path>
	<path class="st2" d="M1528.16,13.05c0-1.5,1.17-2.67,2.67-2.67c1.46,0,2.63,1.17,2.63,2.67c0,1.5-1.17,2.67-2.63,2.67
		C1529.33,15.72,1528.16,14.55,1528.16,13.05z M1528.71,18.39h4.16v20.13h-4.16V18.39z"></path>
	<path class="st2" d="M1545.66,38.85c-4.82,0-8.22-2.85-8.4-6.5h4.31c0.15,1.64,1.72,3,4.02,3c2.41,0,3.69-1.02,3.69-2.41
		c0-3.95-11.69-1.68-11.69-9.06c0-3.22,3-5.81,7.75-5.81c4.57,0,7.56,2.45,7.78,6.47h-4.16c-0.15-1.75-1.5-2.96-3.76-2.96
		c-2.23,0-3.4,0.91-3.4,2.27c0,4.06,11.36,1.79,11.58,9.06C1553.37,36.29,1550.41,38.85,1545.66,38.85z"></path>
	<path class="st2" d="M1575.47,18.06c3.4,0,5.74,1.61,6.98,3.25v-2.92h4.2v20.13h-4.2v-3c-1.28,1.72-3.69,3.32-7.05,3.32
		c-5.22,0-9.43-4.27-9.43-10.49C1565.97,22.15,1570.17,18.06,1575.47,18.06z M1576.35,21.67c-3.11,0-6.1,2.34-6.1,6.69
		c0,4.35,3,6.87,6.1,6.87c3.14,0,6.1-2.45,6.1-6.8C1582.45,24.12,1579.49,21.67,1576.35,21.67z"></path>
	<path class="st2" d="M1397.63,82.69c-4.82,0-8.22-2.85-8.4-6.5h4.31c0.15,1.64,1.72,3,4.02,3c2.41,0,3.69-1.02,3.69-2.41
		c0-3.95-11.69-1.68-11.69-9.06c0-3.22,3-5.81,7.75-5.81c4.57,0,7.56,2.45,7.78,6.47h-4.16c-0.15-1.75-1.5-2.96-3.76-2.96
		c-2.23,0-3.4,0.91-3.4,2.27c0,4.06,11.36,1.79,11.58,9.06C1405.34,80.13,1402.38,82.69,1397.63,82.69z"></path>
	<path class="st2" d="M1410.49,65.63h-2.37v-3.4h2.37v-5.01h4.2v5.01h4.9v3.4h-4.9v11.14c0,1.5,0.59,2.12,2.34,2.12h2.56v3.47h-3.29
		c-3.58,0-5.81-1.5-5.81-5.59V65.63z"></path>
	<path class="st2" d="M1427.59,82.36h-4.17V62.23h4.17v2.92c1.17-2.01,3.18-3.25,6.03-3.25v4.31h-1.06c-3.07,0-4.97,1.28-4.97,5.55
		V82.36z"></path>
	<path class="st2" d="M1445.56,61.9c3.4,0,5.74,1.61,6.98,3.25v-2.92h4.2v20.13h-4.2v-3c-1.28,1.72-3.69,3.32-7.05,3.32
		c-5.23,0-9.43-4.27-9.43-10.49C1436.06,65.99,1440.26,61.9,1445.56,61.9z M1446.44,65.52c-3.1,0-6.1,2.34-6.1,6.69
		c0,4.35,3,6.87,6.1,6.87c3.14,0,6.1-2.45,6.1-6.8C1452.54,67.96,1449.58,65.52,1446.44,65.52z"></path>
	<path class="st2" d="M1461.67,56.89c0-1.5,1.17-2.67,2.67-2.67c1.46,0,2.63,1.17,2.63,2.67c0,1.5-1.17,2.67-2.63,2.67
		C1462.84,59.56,1461.67,58.39,1461.67,56.89z M1462.22,62.23h4.17v20.13h-4.17V62.23z"></path>
	<path class="st2" d="M1479.97,61.9c3.29,0,5.74,1.53,6.98,3.25v-2.92h4.2v20.46c0,5.48-3.54,9.61-9.83,9.61
		c-5.37,0-9.35-2.67-9.86-7.12h4.13c0.62,2.08,2.85,3.51,5.73,3.51c3.22,0,5.63-1.97,5.63-5.99v-3.36
		c-1.28,1.72-3.69,3.36-6.98,3.36c-5.3,0-9.5-4.27-9.5-10.49C1470.47,65.99,1474.68,61.9,1479.97,61.9z M1480.85,65.52
		c-3.11,0-6.1,2.34-6.1,6.69c0,4.35,3,6.87,6.1,6.87c3.14,0,6.1-2.45,6.1-6.8C1486.95,67.96,1483.99,65.52,1480.85,65.52z"></path>
	<path class="st2" d="M1496.63,55.32h4.16v9.24c1.39-1.68,3.65-2.67,6.25-2.67c4.49,0,8,2.96,8,8.59v11.87h-4.13V71.11
		c0-3.69-2.01-5.59-5.04-5.59c-3.07,0-5.08,1.9-5.08,5.59v11.25h-4.16V55.32z"></path>
	<path class="st2" d="M1521,65.63h-2.37v-3.4h2.37v-5.01h4.2v5.01h4.9v3.4h-4.9v11.14c0,1.5,0.59,2.12,2.34,2.12h2.56v3.47h-3.29
		c-3.58,0-5.81-1.5-5.81-5.59V65.63z"></path>
	<path class="st2" d="M1543.43,55.32h4.17v27.04h-4.17V55.32z"></path>
	<path class="st2" d="M1552.53,56.89c0-1.5,1.17-2.67,2.67-2.67c1.46,0,2.63,1.17,2.63,2.67c0,1.5-1.17,2.67-2.63,2.67
		C1553.7,59.56,1552.53,58.39,1552.53,56.89z M1553.08,62.23h4.16v20.13h-4.16V62.23z"></path>
	<path class="st2" d="M1577.01,71.11c0-3.69-2.01-5.59-5.04-5.59c-3.07,0-5.08,1.9-5.08,5.59v11.25h-4.16V62.23h4.16v2.3
		c1.35-1.64,3.58-2.63,5.99-2.63c4.71,0,8.26,2.96,8.26,8.59v11.87h-4.13V71.11z"></path>
	<path class="st2" d="M1595.09,82.69c-5.77,0-10.05-4.09-10.05-10.41c0-6.32,4.09-10.38,10.05-10.38c5.74,0,9.79,3.98,9.79,9.9
		c0,0.69-0.04,1.35-0.15,2.05h-15.38c0.29,3.32,2.67,5.33,5.73,5.33c2.56,0,3.98-1.24,4.75-2.81h4.49
		C1603.2,79.87,1600.02,82.69,1595.09,82.69z M1589.39,70.48h11.14c-0.07-3.11-2.52-5.08-5.63-5.08
		C1592.09,65.41,1589.83,67.31,1589.39,70.48z"></path>
</g>
<g>
	<path class="st1" d="M1027.84,298.88l-0.69-2.99c0.66-0.15,65.96-15.64,90.5-45.5c25.33-30.83,65.79-31.18,66.2-31.18v3.07
		c-0.39,0-39.44,0.38-63.83,30.06C1094.81,283.01,1030.56,298.24,1027.84,298.88z"></path>
</g>
<g>
	<line class="st2" x1="1349.38" y1="220.74" x2="1422.83" y2="220.74"></line>
	<rect x="1349.38" y="219.2" class="st1" width="73.45" height="3.07"></rect>
</g>
<g>
	<path class="st1" d="M1323.92,198.71l-2.72-1.4c0.22-0.43,21.74-42.78,9.97-66.32c-7.63-15.25-4.77-41.49,6.5-59.73
		c8.85-14.32,21.73-22.2,36.26-22.2v3.07c-17.22,0-27.8,11.28-33.65,20.75c-10.77,17.42-13.56,42.35-6.36,56.74
		C1346.38,154.55,1324.85,196.92,1323.92,198.71z"></path>
</g>
<g>
	<path class="st6" d="M1097.35,555.32c-0.05-0.19-5.72-19.23-38.07-28.05c-34.46-9.4-34.78-80.2-34.78-83.21l3.07,0
		c0,0.71,0.31,71.47,32.52,80.25c34.18,9.32,39.99,29.35,40.22,30.2L1097.35,555.32z"></path>
</g>
<g>
	<path class="st6" d="M1370.89,694.71c-0.24-1.21-6.42-29.55-43.06-32.24c-38.65-2.83-65.95-45.16-67.1-46.96l2.59-1.64
		c0.27,0.43,27.64,42.83,64.73,45.54c39.03,2.86,45.78,34.37,45.84,34.69L1370.89,694.71z"></path>
</g>
<g>
	<path class="st7" d="M852.85,707.67c0-0.38,0.04-38.57,27.93-66.46c26.76-26.76,17.04-122.32,16.94-123.28l3.05-0.32
		c0.42,3.99,9.97,97.98-17.82,125.77c-27,27-27.04,63.91-27.04,64.27L852.85,707.67z"></path>
</g>
<g>
	<path class="st5" d="M632.18,561.03l-0.39-3.04c0.47-0.06,46.75-6.44,58.59-40.73c12.35-35.76,77.71-72.97,80.48-74.54l1.51,2.67
		c-0.67,0.38-67.12,38.21-79.09,72.87C680.8,554.36,632.66,560.97,632.18,561.03z"></path>
</g>
<g>
	<path class="st5" d="M319.3,683.48l-0.02-3.07c15.28-0.11,30.42-7.64,37.68-18.73c3.22-4.92,6.23-12.71,2.31-21.85
		c-9.5-22.16,20.5-52.53,21.79-53.81l2.17,2.17c-0.3,0.3-29.82,30.17-21.14,50.43c3.48,8.11,2.57,16.9-2.57,24.74
		C351.73,675.27,335.57,683.36,319.3,683.48z"></path>
</g>
<g>
	<path class="st5" d="M356.15,532.37c-0.12-0.4-12.33-40.16-15.38-58.45c-2.82-16.9-33.82-17.11-34.13-17.11l0-3.07
		c1.38,0,33.91,0.22,37.15,19.68c3.01,18.08,15.16,57.65,15.28,58.05L356.15,532.37z"></path>
</g>
<g>
	<path class="st3" d="M795.82,252.04c-10.37,0-22.25-0.25-34.55-1.02c-49.15-3.07-81.01-12.45-94.71-27.88
		c-6.47-7.29-8.8-15.93-6.94-25.69c8.94-46.92,1.21-76.82-9-89.16c-3.86-4.66-8.17-7.12-12.48-7.12v-3.07
		c5.26,0,10.39,2.85,14.85,8.23c5.17,6.25,21.15,31.33,9.65,91.69c-1.67,8.78,0.42,16.54,6.22,23.08
		c31.48,35.47,160.5,26.97,161.8,26.88l0.21,3.06C830.65,251.06,816.16,252.04,795.82,252.04z"></path>
</g>
<g>
	<path class="st4" d="M743.58,299.36c-36.9,0-99.31-2.18-120.56-16.13c-29.39-19.3-77.67-16.53-78.16-16.5l-0.19-3.06
		c2.02-0.12,49.77-2.87,80.03,17c29.43,19.32,145.68,15.23,146.85,15.19l0.11,3.06C770.23,298.97,759.19,299.36,743.58,299.36z"></path>
</g>
<g>
	
		<linearGradient id="SVGID_1_" gradientUnits="userSpaceOnUse" x1="3885.7542" y1="-4443.416" x2="4054.3733" y2="-4443.416" gradientTransform="matrix(0.7071 0.7071 -0.7071 0.7071 -5050.7573 702.6068)">
		<stop offset="0" style="stop-color:#FFDF01"></stop>
		<stop offset="8.163194e-03" style="stop-color:#FFDE01"></stop>
		<stop offset="0.1401" style="stop-color:#FFD300"></stop>
		<stop offset="0.2809" style="stop-color:#FFCF00"></stop>
		<stop offset="0.6685" style="stop-color:#FFBA01"></stop>
		<stop offset="1" style="stop-color:#FFB302"></stop>
	</linearGradient>
	<circle class="st8" cx="898.47" cy="367.9" r="84.31"></circle>
	
		<ellipse transform="matrix(0.6759 -0.737 0.737 0.6759 32.9804 733.8741)" class="st9" cx="850.94" cy="329.44" rx="24.01" ry="17.29"></ellipse>
	<path class="st10" d="M958.1,427.53c-32.93,32.9-86.33,32.9-119.26,0c-5-5-9.26-10.48-12.75-16.31
		c33.14,27.65,82.5,25.94,113.62-5.15c27.9-27.93,32.13-70.54,12.75-102.95c1.93,1.62,3.83,3.34,5.64,5.15
		C991,341.19,991,394.6,958.1,427.53z"></path>
</g>
<linearGradient id="SVGID_00000088122815145123668910000016650736701555066525_" gradientUnits="userSpaceOnUse" x1="886.4709" y1="242.4613" x2="910.4713" y2="266.4617">
	<stop offset="0" style="stop-color:#FFDF01"></stop>
	<stop offset="8.163194e-03" style="stop-color:#FFDE01"></stop>
	<stop offset="0.1401" style="stop-color:#FFD300"></stop>
	<stop offset="0.2809" style="stop-color:#FFCF00"></stop>
	<stop offset="0.6685" style="stop-color:#FFBA01"></stop>
	<stop offset="1" style="stop-color:#FFB302"></stop>
</linearGradient>
<path style="fill:url(#SVGID_00000088122815145123668910000016650736701555066525_);" d="M898.47,233L898.47,233
	c-3.39,0-6.13,2.75-6.13,6.13v30.66c0,3.39,2.75,6.13,6.13,6.13l0,0c3.39,0,6.13-2.75,6.13-6.13v-30.66
	C904.6,235.75,901.86,233,898.47,233z"></path>
<linearGradient id="SVGID_00000008851225545708838630000011487203294273411256_" gradientUnits="userSpaceOnUse" x1="886.4709" y1="469.3306" x2="910.4713" y2="493.331">
	<stop offset="0" style="stop-color:#FFDF01"></stop>
	<stop offset="8.163194e-03" style="stop-color:#FFDE01"></stop>
	<stop offset="0.1401" style="stop-color:#FFD300"></stop>
	<stop offset="0.2809" style="stop-color:#FFCF00"></stop>
	<stop offset="0.6685" style="stop-color:#FFBA01"></stop>
	<stop offset="1" style="stop-color:#FFB302"></stop>
</linearGradient>
<path style="fill:url(#SVGID_00000008851225545708838630000011487203294273411256_);" d="M898.47,459.87L898.47,459.87
	c-3.39,0-6.13,2.75-6.13,6.13v30.66c0,3.39,2.75,6.13,6.13,6.13l0,0c3.39,0,6.13-2.75,6.13-6.13V466
	C904.6,462.62,901.86,459.87,898.47,459.87z"></path>
<linearGradient id="SVGID_00000168092974763884349790000013039861020879272848_" gradientUnits="userSpaceOnUse" x1="4068.4441" y1="-6350.9429" x2="4092.4446" y2="-6326.9424" gradientTransform="matrix(0.5164 0.8564 -0.8564 0.5164 -6539.8613 88.2721)">
	<stop offset="0" style="stop-color:#FFDF01"></stop>
	<stop offset="8.163194e-03" style="stop-color:#FFDE01"></stop>
	<stop offset="0.1401" style="stop-color:#FFD300"></stop>
	<stop offset="0.2809" style="stop-color:#FFCF00"></stop>
	<stop offset="0.6685" style="stop-color:#FFBA01"></stop>
	<stop offset="1" style="stop-color:#FFB302"></stop>
</linearGradient>
<path style="fill:url(#SVGID_00000168092974763884349790000013039861020879272848_);" d="M1013.99,298.24L1013.99,298.24
	c-1.75-2.9-5.52-3.83-8.42-2.08l-26.25,15.83c-2.9,1.75-3.83,5.52-2.08,8.42l0,0c1.75,2.9,5.52,3.83,8.42,2.08l26.25-15.83
	C1014.81,304.91,1015.74,301.14,1013.99,298.24z"></path>
<linearGradient id="SVGID_00000013893371771982029170000016376293296850322080_" gradientUnits="userSpaceOnUse" x1="4070.9924" y1="-6129.1885" x2="4089.8962" y2="-6094.9585" gradientTransform="matrix(0.5164 0.8564 -0.8564 0.5164 -6539.8613 88.2721)">
	<stop offset="0" style="stop-color:#FFDF01"></stop>
	<stop offset="8.163194e-03" style="stop-color:#FFDE01"></stop>
	<stop offset="0.1401" style="stop-color:#FFD300"></stop>
	<stop offset="0.2809" style="stop-color:#FFCF00"></stop>
	<stop offset="0.6685" style="stop-color:#FFBA01"></stop>
	<stop offset="1" style="stop-color:#FFB302"></stop>
</linearGradient>
<path style="fill:url(#SVGID_00000013893371771982029170000016376293296850322080_);" d="M819.71,415.39L819.71,415.39
	c-1.75-2.9-5.52-3.83-8.42-2.08l-26.25,15.83c-2.9,1.75-3.83,5.52-2.08,8.42v0c1.75,2.9,5.52,3.83,8.42,2.08l26.25-15.83
	C820.52,422.06,821.46,418.29,819.71,415.39z"></path>
<linearGradient id="SVGID_00000054951505409265597860000017813716989128961688_" gradientUnits="userSpaceOnUse" x1="-121.8078" y1="-12555.4922" x2="-98.0047" y2="-12568.9219" gradientTransform="matrix(-0.4914 0.8709 -0.8709 -0.4914 -9997.7158 -5653.4922)">
	<stop offset="0" style="stop-color:#FFDF01"></stop>
	<stop offset="8.163194e-03" style="stop-color:#FFDE01"></stop>
	<stop offset="0.1401" style="stop-color:#FFD300"></stop>
	<stop offset="0.2809" style="stop-color:#FFCF00"></stop>
	<stop offset="0.6685" style="stop-color:#FFBA01"></stop>
	<stop offset="1" style="stop-color:#FFB302"></stop>
</linearGradient>
<path style="fill:url(#SVGID_00000054951505409265597860000017813716989128961688_);" d="M1015.96,434.18L1015.96,434.18
	c1.66-2.95,0.62-6.69-2.33-8.35l-26.7-15.06c-2.95-1.66-6.69-0.62-8.35,2.33l0,0c-1.66,2.95-0.62,6.69,2.33,8.35l26.7,15.06
	C1010.55,438.17,1014.29,437.13,1015.96,434.18z"></path>
<linearGradient id="SVGID_00000005952071885065604940000001923988045018494867_" gradientUnits="userSpaceOnUse" x1="-115.5156" y1="-12315.2051" x2="-104.297" y2="-12355.4707" gradientTransform="matrix(-0.4914 0.8709 -0.8709 -0.4914 -9997.7158 -5653.4922)">
	<stop offset="0" style="stop-color:#FFDF01"></stop>
	<stop offset="8.163194e-03" style="stop-color:#FFDE01"></stop>
	<stop offset="0.1401" style="stop-color:#FFD300"></stop>
	<stop offset="0.2809" style="stop-color:#FFCF00"></stop>
	<stop offset="0.6685" style="stop-color:#FFBA01"></stop>
	<stop offset="1" style="stop-color:#FFB302"></stop>
</linearGradient>
<path style="fill:url(#SVGID_00000005952071885065604940000001923988045018494867_);" d="M818.37,322.7L818.37,322.7
	c1.66-2.95,0.62-6.69-2.33-8.35l-26.7-15.06c-2.95-1.66-6.69-0.62-8.35,2.33l0,0c-1.66,2.95-0.62,6.69,2.33,8.35l26.7,15.06
	C812.96,326.69,816.7,325.65,818.37,322.7z"></path>
<linearGradient id="SVGID_00000162344920635217103370000011674201206573078409_" gradientUnits="userSpaceOnUse" x1="3346.5107" y1="-2621.8022" x2="3362.8467" y2="-2605.4666" gradientTransform="matrix(0.8709 0.4914 -0.4914 0.8709 -3255.5693 903.6125)">
	<stop offset="0" style="stop-color:#FFDF01"></stop>
	<stop offset="8.163194e-03" style="stop-color:#FFDE01"></stop>
	<stop offset="0.1401" style="stop-color:#FFD300"></stop>
	<stop offset="0.2809" style="stop-color:#FFCF00"></stop>
	<stop offset="0.6685" style="stop-color:#FFBA01"></stop>
	<stop offset="1" style="stop-color:#FFB302"></stop>
</linearGradient>
<path style="fill:url(#SVGID_00000162344920635217103370000011674201206573078409_);" d="M957.24,263.7L957.24,263.7
	c-2.95-1.66-6.69-0.62-8.35,2.33l-7.53,13.35c-1.66,2.95-0.62,6.69,2.33,8.35h0c2.95,1.66,6.69,0.62,8.35-2.33l7.53-13.35
	C961.23,269.1,960.19,265.36,957.24,263.7z"></path>
<linearGradient id="SVGID_00000105420234002466751540000015696338715281030821_" gradientUnits="userSpaceOnUse" x1="3346.7651" y1="-2410.2625" x2="3363.1011" y2="-2393.9268" gradientTransform="matrix(0.8709 0.4914 -0.4914 0.8709 -3255.5693 903.6125)">
	<stop offset="0" style="stop-color:#FFDF01"></stop>
	<stop offset="8.163194e-03" style="stop-color:#FFDE01"></stop>
	<stop offset="0.1401" style="stop-color:#FFD300"></stop>
	<stop offset="0.2809" style="stop-color:#FFCF00"></stop>
	<stop offset="0.6685" style="stop-color:#FFBA01"></stop>
	<stop offset="1" style="stop-color:#FFB302"></stop>
</linearGradient>
<path style="fill:url(#SVGID_00000105420234002466751540000015696338715281030821_);" d="M853.52,448.06L853.52,448.06
	c-2.95-1.66-6.69-0.62-8.35,2.33l-7.53,13.35c-1.66,2.95-0.62,6.69,2.33,8.35h0c2.95,1.66,6.69,0.62,8.35-2.33l7.53-13.35
	C857.51,453.47,856.46,449.73,853.52,448.06z"></path>
<linearGradient id="SVGID_00000090284618041590954340000018311141842405555843_" gradientUnits="userSpaceOnUse" x1="2757.0959" y1="-10103.3955" x2="2774.3557" y2="-10093.4307" gradientTransform="matrix(-4.376758e-07 1 -1 -4.376758e-07 -9094.043 -2397.9609)">
	<stop offset="0" style="stop-color:#FFDF01"></stop>
	<stop offset="8.163194e-03" style="stop-color:#FFDE01"></stop>
	<stop offset="0.1401" style="stop-color:#FFD300"></stop>
	<stop offset="0.2809" style="stop-color:#FFCF00"></stop>
	<stop offset="0.6685" style="stop-color:#FFBA01"></stop>
	<stop offset="1" style="stop-color:#FFB302"></stop>
</linearGradient>
<path style="fill:url(#SVGID_00000090284618041590954340000018311141842405555843_);" d="M1018.17,367.77L1018.17,367.77
	c0-3.39-2.75-6.13-6.13-6.13H996.7c-3.39,0-6.13,2.75-6.13,6.13l0,0c0,3.39,2.75,6.13,6.13,6.13h15.33
	C1015.42,373.9,1018.17,371.16,1018.17,367.77z"></path>
<linearGradient id="SVGID_00000013896189324356663580000006501556952002328967_" gradientUnits="userSpaceOnUse" x1="2759.595" y1="-9875.8135" x2="2772.3652" y2="-9897.9326" gradientTransform="matrix(-4.376758e-07 1 -1 -4.376758e-07 -9094.043 -2397.9609)">
	<stop offset="0" style="stop-color:#FFDF01"></stop>
	<stop offset="8.163194e-03" style="stop-color:#FFDE01"></stop>
	<stop offset="0.1401" style="stop-color:#FFD300"></stop>
	<stop offset="0.2809" style="stop-color:#FFCF00"></stop>
	<stop offset="0.6685" style="stop-color:#FFBA01"></stop>
	<stop offset="1" style="stop-color:#FFB302"></stop>
</linearGradient>
<path style="fill:url(#SVGID_00000013896189324356663580000006501556952002328967_);" d="M806.63,368.02L806.63,368.02
	c0-3.39-2.75-6.13-6.13-6.13h-15.33c-3.39,0-6.13,2.75-6.13,6.13v0c0,3.39,2.75,6.13,6.13,6.13h15.33
	C803.88,374.16,806.63,371.41,806.63,368.02z"></path>
<linearGradient id="SVGID_00000072980688595195780380000005609298356764153488_" gradientUnits="userSpaceOnUse" x1="-3989.3335" y1="-13263.8828" x2="-3972.0715" y2="-13273.8857" gradientTransform="matrix(-0.8668 0.4986 -0.4986 -0.8668 -9115.2773 -9057.3271)">
	<stop offset="0" style="stop-color:#FFDF01"></stop>
	<stop offset="8.163194e-03" style="stop-color:#FFDE01"></stop>
	<stop offset="0.1401" style="stop-color:#FFD300"></stop>
	<stop offset="0.2809" style="stop-color:#FFCF00"></stop>
	<stop offset="0.6685" style="stop-color:#FFBA01"></stop>
	<stop offset="1" style="stop-color:#FFB302"></stop>
</linearGradient>
<path style="fill:url(#SVGID_00000072980688595195780380000005609298356764153488_);" d="M958.33,471.48L958.33,471.48
	c2.94-1.69,3.95-5.44,2.26-8.37l-7.64-13.29c-1.69-2.94-5.44-3.95-8.37-2.26v0c-2.94,1.69-3.95,5.44-2.26,8.37l7.64,13.29
	C951.64,472.15,955.39,473.16,958.33,471.48z"></path>
<linearGradient id="SVGID_00000097462459086856515110000013449934625713297566_" gradientUnits="userSpaceOnUse" x1="-3974.0486" y1="-13046.3008" x2="-3986.8479" y2="-13068.3887" gradientTransform="matrix(-0.8668 0.4986 -0.4986 -0.8668 -9115.2773 -9057.3271)">
	<stop offset="0" style="stop-color:#FFDF01"></stop>
	<stop offset="8.163194e-03" style="stop-color:#FFDE01"></stop>
	<stop offset="0.1401" style="stop-color:#FFD300"></stop>
	<stop offset="0.2809" style="stop-color:#FFCF00"></stop>
	<stop offset="0.6685" style="stop-color:#FFBA01"></stop>
	<stop offset="1" style="stop-color:#FFB302"></stop>
</linearGradient>
<path style="fill:url(#SVGID_00000097462459086856515110000013449934625713297566_);" d="M852.63,288.24L852.63,288.24
	c2.94-1.69,3.95-5.44,2.26-8.37l-7.64-13.29c-1.69-2.94-5.44-3.95-8.37-2.26l0,0c-2.94,1.69-3.95,5.44-2.26,8.37l7.64,13.29
	C845.94,288.91,849.69,289.92,852.63,288.24z"></path>
</svg>
